<?xml version="1.0" encoding="UTF-8" standalone="no"?>
<svg
   height="713.37085"
   viewBox="0 0 584.81677 668.78517"
   width="623.80457"
   version="1.1"
   id="svg19"
   sodipodi:docname="new_logo_vertical_monochrome_light.svg"
   inkscape:version="1.3 (0e150ed6c4, 2023-07-21)"
   inkscape:export-filename="..\logo_vertical_monochrome_light.png"
   inkscape:export-xdpi="157.58781"
   inkscape:export-ydpi="157.58781"
   xmlns:inkscape="http://www.inkscape.org/namespaces/inkscape"
   xmlns:sodipodi="http://sodipodi.sourceforge.net/DTD/sodipodi-0.dtd"
   xmlns="http://www.w3.org/2000/svg"
   xmlns:svg="http://www.w3.org/2000/svg">
  <defs
     id="defs19" />
  <sodipodi:namedview
     id="namedview19"
     pagecolor="#505050"
     bordercolor="#ffffff"
     borderopacity="1"
     inkscape:showpageshadow="0"
     inkscape:pageopacity="0"
     inkscape:pagecheckerboard="1"
     inkscape:deskcolor="#505050"
     inkscape:zoom="1.2069459"
     inkscape:cx="311.9444"
     inkscape:cy="356.68542"
     inkscape:window-width="1920"
     inkscape:window-height="1057"
     inkscape:window-x="1912"
     inkscape:window-y="-8"
     inkscape:window-maximized="1"
     inkscape:current-layer="svg19" />
  <path
     d="m0 0c-3.611.0-6.636-1.659-9.09-4.967-2.441-3.311-3.668-7.958-3.668-13.938.0-5.993 1.166-10.581 3.503-13.778 2.333-3.207 5.398-4.804 9.2-4.804 3.8.0 6.887 1.617 9.258 4.862 2.371 3.233 3.559 7.861 3.559 13.886.0 6.02-1.227 10.654-3.673 13.89C6.646-1.617 3.616.0.0.0m-.055-59.493c-10.573.0-19.195 3.46-25.859 10.379-6.655 6.925-9.984 17.03-9.984 30.314.0 13.292 3.367 23.356 10.101 30.209 6.736 6.844 15.431 10.269 26.082 10.269 10.649.0 19.251-3.363 25.794-10.109 6.555-6.733 9.827-16.94 9.827-30.591.0-13.661-3.348-23.822-10.05-30.49-6.702-6.654-15.333-9.981-25.911-9.981"
     transform="matrix(1.41381688 0 0 -1.41381688 194.878723 453.348253)"
     id="path1" />
  <path
     d="m0 0v-33.768c0-1.577.116-2.571.342-2.988.224-.415.903-.623 2.029-.623 4.144.0 7.283 1.548 9.429 4.634 2.151 3.083 3.215 8.216 3.215 15.405.0 7.192-1.113 11.878-3.325 14.055-2.223 2.183-5.744 3.285-10.561 3.285zm-21.675-52.392v67.735c0 1.883.468 3.369 1.413 4.471.939 1.085 2.161 1.636 3.671 1.636H2.263c11.965.0 21.053-3.018 27.257-9.04 6.215-6.02 9.322-15.499 9.322-28.447.0-27.7-11.821-41.547-35.456-41.547h-19.302c-3.836.0-5.759 1.727-5.759 5.192"
     transform="matrix(1.41381688 0 0 -1.41381688 290.381185 454.454128)"
     id="path2" />
  <path
     d="m0 0c-3.612.0-6.645-1.659-9.095-4.967-2.44-3.311-3.662-7.958-3.662-13.938.0-5.993 1.169-10.581 3.499-13.778 2.33-3.207 5.398-4.804 9.2-4.804 3.801.0 6.89 1.617 9.258 4.862 2.372 3.233 3.56 7.861 3.56 13.886.0 6.02-1.225 10.654-3.671 13.89-2.447 3.232-5.473 4.849-9.089 4.849m-.058-59.493c-10.577.0-19.193 3.46-25.851 10.379-6.663 6.925-9.993 17.03-9.993 30.314.0 13.292 3.367 23.356 10.1 30.209 6.741 6.844 15.431 10.269 26.086 10.269 10.651.0 19.246-3.363 25.797-10.109 6.55-6.733 9.822-16.94 9.822-30.591.0-13.661-3.349-23.822-10.05-30.49-6.699-6.654-15.338-9.981-25.911-9.981"
     transform="matrix(1.41381688 0 0 -1.41381688 406.580135 453.348253)"
     id="path3" />
  <path
     d="m0 0c0-1.496-3.721-2.255-11.176-2.255-7.448.0-11.18.759-11.18 2.255v56.681h-13.545c-1.281.0-2.185 1.727-2.71 5.198-.226 1.652-.334 3.343-.334 5.077.0 1.724.108 3.422.334 5.077.525 3.462 1.429 5.202 2.71 5.202h49.112c1.279.0 2.179-1.74 2.712-5.202.221-1.655.335-3.353.335-5.077.0-1.734-.114-3.425-.335-5.077-.533-3.471-1.433-5.198-2.712-5.198h-13.211z"
     transform="matrix(1.41381688 0 0 -1.41381688 516.83096 533.323915)"
     id="path4" />
  <path
     d="m0 0c-6.078.094-13.034-1.173-13.034-1.173v-11.863h6.995l-.078-5.288c0-1.959-1.942-2.943-5.815-2.943-3.878.0-7.303 1.642-10.274 4.917-2.978 3.279-4.459 8.072-4.459 14.388.0 6.329 1.447 10.995 4.345 14.006 2.892 3.008 6.683 4.517 11.346 4.517 1.959.0 3.987-.316 6.096-.961 2.11-.639 3.519-1.238 4.238-1.799.713-.577 1.391-.85 2.032-.85.638.0 1.671.746 3.1 2.255 1.431 1.505 2.713 3.786 3.844 6.827 1.126 3.057 1.69 5.4 1.69 7.062.0 1.649-.036 2.786-.109 3.386-1.581 1.73-4.499 3.102-8.755 4.122-4.248 1.017-9.011 1.522-14.28 1.522-11.594.0-20.66-3.65-27.207-10.95-6.552-7.303-9.822-16.783-9.822-28.452.0-13.701 3.347-24.087 10.041-31.162 6.706-7.074 15.51-10.607 26.425-10.607 5.87.0 11.08.505 15.632 1.522 4.557 1.013 7.586 2.053 9.093 3.105l.452 35.33c0 2.053-5.418 2.985-11.496 3.089"
     transform="matrix(1.41381688 0 0 -1.41381688 115.898673 476.601865)"
     id="path5" />
  <g
     transform="matrix(1.25 0 0 -1.25 -392.9327 897.49284)"
     id="g15">
    <path
       d="m0 0c-.624-1.28-1.771-2.454-3.449-3.516-1.676-1.069-3.805-1.6-6.391-1.6-3.412.0-6.156 1.075-8.24 3.249-2.076 2.157-3.116 5.266-3.116 9.323v10.116c0 3.969.98 7.013 2.946 9.138 1.962 2.108 4.59 3.177 7.872 3.177 3.208.0 5.695-.844 7.455-2.513 1.755-1.675 2.677-4.015 2.757-7.003l-.044-.133h-2.619c-.094 2.29-.759 4.057-2.01 5.305-1.244 1.238-3.095 1.864-5.539 1.864-2.473.0-4.432-.837-5.866-2.516-1.43-1.675-2.143-4.103-2.143-7.293v-10.174c0-3.308.771-5.83 2.311-7.567 1.54-1.724 3.616-2.588 6.236-2.588 1.913.0 3.451.339 4.602 1.033 1.155.684 1.956 1.519 2.409 2.51v8.861h-7.06v2.463h9.889z"
       transform="matrix(1.1310535 0 0 1.1310535 441.34721 235.75121)"
       id="path6" />
    <path
       d="m0 0c1.553.0 2.936.44 4.144 1.336 1.21.9 2.058 2.037 2.561 3.422v5.468H2.213c-1.91.0-3.44-.541-4.585-1.623-1.148-1.075-1.716-2.418-1.716-4.015.0-1.349.355-2.457 1.074-3.311.718-.857 1.722-1.277 3.014-1.277m7.124-2.04c-.14.876-.249 1.587-.318 2.144-.067.567-.101 1.131-.101 1.704C5.938.554 4.948-.486 3.725-1.301c-1.221-.821-2.579-1.228-4.075-1.228-2.092.0-3.701.648-4.84 1.946C-6.322.72-6.894 2.476-6.894 4.693c0 2.343.823 4.223 2.473 5.618 1.649 1.395 3.89 2.092 6.709 2.092h4.417v3.106c0 1.786-.456 3.193-1.351 4.21-.914 1.004-2.17 1.512-3.791 1.512-1.508.0-2.752-.479-3.728-1.45-.973-.965-1.456-2.144-1.456-3.549l-2.623.023-.046.137c-.074 1.906.647 3.591 2.168 5.084 1.515 1.489 3.459 2.229 5.825 2.229 2.338.0 4.22-.711 5.657-2.128 1.429-1.431 2.146-3.471 2.146-6.124V3.057c0-.903.042-1.78.121-2.617.081-.848.212-1.665.417-2.48z"
       transform="matrix(1.1310535 0 0 1.1310535 456.01527 232.82495)"
       id="path7" />
    <path
       d="m0 0 .24-3.923C.904-2.519 1.794-1.437 2.897-.668c1.107.759 2.41 1.138 3.906 1.138 1.527.0 2.814-.444 3.852-1.343 1.039-.896 1.805-2.252 2.292-4.074.623 1.682 1.505 3.011 2.65 3.973 1.145.964 2.534 1.444 4.143 1.444 2.217.0 3.937-.897 5.156-2.692 1.224-1.799 1.834-4.559 1.834-8.288v-14.765h-2.823v14.814c0 3.1-.429 5.283-1.263 6.538-.839 1.257-2.042 1.89-3.598 1.89-1.637.0-2.915-.691-3.834-2.096-.914-1.405-1.478-3.161-1.683-5.282v-.655-15.209H10.72v14.798c0 3.027-.424 5.194-1.292 6.488-.864 1.294-2.066 1.936-3.609 1.936-1.475.0-2.668-.45-3.562-1.342-.9-.897-1.54-2.125-1.928-3.683v-18.197h-2.806V0z"
       transform="matrix(1.1310535 0 0 1.1310535 476.7303 259.10521)"
       id="path8" />
    <path
       d="m0 0c-1.758.0-3.202-.802-4.334-2.402-1.133-1.606-1.718-3.585-1.765-5.944h11.66v1.082c0 2.086-.489 3.823-1.469 5.201-.986 1.379-2.347 2.063-4.092 2.063m.397-23.76c-2.725.0-4.954 1.026-6.685 3.073-1.726 2.043-2.591 4.657-2.591 7.841v4.197c0 3.19.867 5.85 2.602 7.965 1.739 2.105 3.828 3.158 6.277 3.158 2.648.0 4.699-.939 6.164-2.823 1.468-1.887 2.201-4.422 2.201-7.603v-2.773H-6.099v-2.102c0-2.447.586-4.484 1.752-6.11 1.168-1.63 2.755-2.438 4.744-2.438 1.382.0 2.585.244 3.588.724 1.003.491 1.863 1.179 2.578 2.082l1.149-1.988c-.763-.968-1.752-1.75-2.959-2.33-1.204-.577-2.659-.873-4.356-.873"
       transform="matrix(1.1310535 0 0 1.1310535 522.82277 256.83868)"
       id="path9" />
    <path
       d="m0 0c-1.763.0-3.21-.802-4.341-2.402-1.126-1.606-1.712-3.585-1.763-5.944H5.559v1.082c0 2.086-.488 3.823-1.474 5.201-.981 1.379-2.341 2.063-4.085 2.063m.394-23.76c-2.726.0-4.951 1.026-6.679 3.073-1.733 2.043-2.6 4.657-2.6 7.841v4.197c0 3.19.871 5.85 2.602 7.965 1.744 2.105 3.834 3.158 6.283 3.158 2.643.0 4.703-.939 6.164-2.823 1.463-1.887 2.197-4.422 2.197-7.603v-2.773H-6.104v-2.102c0-2.447.587-4.484 1.76-6.11 1.162-1.63 2.742-2.438 4.738-2.438 1.387.0 2.585.244 3.585.724 1.007.491 1.866 1.179 2.589 2.082l1.141-1.988c-.764-.968-1.75-1.75-2.959-2.33-1.204-.577-2.658-.873-4.356-.873"
       transform="matrix(1.1310535 0 0 1.1310535 558.0805 256.83868)"
       id="path10" />
    <path
       d="m0 0 .23-4.178C.904-2.695 1.794-1.544 2.912-.743c1.108.805 2.413 1.213 3.914 1.213 2.258.0 3.988-.835 5.189-2.513 1.214-1.675 1.815-4.279 1.815-7.812v-15.42h-2.825v15.394c0 2.888-.423 4.905-1.264 6.075-.836 1.17-2.065 1.753-3.665 1.753-1.435.0-2.638-.466-3.603-1.414-.969-.939-1.691-2.19-2.172-3.767v-18.041h-2.805V0z"
       transform="matrix(1.1310535 0 0 1.1310535 575.91679 259.10521)"
       id="path11" />
    <path
       d="m0 0c0-2.565.486-4.605 1.472-6.123.974-1.532 2.457-2.288 4.436-2.288 1.356.0 2.498.361 3.435 1.101.934.74 1.672 1.77 2.218 3.077v12.52c-.525 1.346-1.246 2.434-2.157 3.272-.91.824-2.062 1.238-3.448 1.238-1.975.0-3.468-.86-4.46-2.587-.999-1.73-1.496-3.986-1.496-6.756zm-2.833 3.454c0 3.582.723 6.459 2.177 8.627 1.442 2.157 3.448 3.239 6.004 3.239 1.419.0 2.664-.346 3.728-1.04 1.066-.681 1.947-1.678 2.654-2.946l.274 3.516h2.381v-25.298c0-3.239-.751-5.749-2.26-7.525-1.511-1.769-3.657-2.665-6.428-2.665-.996.0-2.067.156-3.212.459-1.147.303-2.162.701-3.052 1.2l.776 2.463c.759-.492 1.608-.873 2.548-1.141.932-.277 1.895-.41 2.894-.41 2.009.0 3.498.645 4.46 1.932.966 1.304 1.45 3.19 1.45 5.687v3.057c-.717-1.138-1.597-2.011-2.64-2.614-1.039-.606-2.253-.909-3.622-.909-2.539.0-4.53.994-5.968 2.982-1.441 1.984-2.164 4.631-2.164 7.932z"
       transform="matrix(1.1310535 0 0 1.1310535 600.8685 242.30884)"
       id="path12" />
    <path
       d="m627.82321 230.5176h-3.20089v28.58738h3.20089zm0 36.72644h-3.20089v4.50385h3.20089z"
       id="path13" />
    <path
       d="m0 0 .23-4.178C.906-2.695 1.792-1.544 2.908-.743c1.115.805 2.422 1.213 3.916 1.213 2.258.0 3.995-.835 5.199-2.513 1.211-1.675 1.807-4.279 1.807-7.812v-15.42h-2.825v15.394c0 2.888-.422 4.905-1.261 6.075-.843 1.17-2.063 1.753-3.668 1.753-1.434.0-2.635-.466-3.599-1.414C1.51-4.406.785-5.657.306-7.234v-18.041h-2.809V0z"
       transform="matrix(1.1310535 0 0 1.1310535 638.15379 259.10521)"
       id="path14" />
    <path
       d="m0 0c-1.763.0-3.208-.802-4.334-2.402-1.129-1.606-1.718-3.585-1.768-5.944H5.56v1.082c0 2.086-.486 3.823-1.47 5.201-.981 1.379-2.343 2.063-4.09 2.063m.401-23.76c-2.733.0-4.958 1.026-6.681 3.073-1.73 2.043-2.595 4.657-2.595 7.841v4.197c0 3.19.865 5.85 2.6 7.965 1.739 2.105 3.831 3.158 6.275 3.158 2.646.0 4.706-.939 6.172-2.823 1.462-1.887 2.195-4.422 2.195-7.603v-2.773H-6.102v-2.102c0-2.447.59-4.484 1.757-6.11 1.166-1.63 2.748-2.438 4.746-2.438 1.382.0 2.579.244 3.578.724 1.012.491 1.869 1.179 2.591 2.082l1.147-1.988c-.769-.968-1.755-1.75-2.962-2.33-1.203-.577-2.658-.873-4.354-.873"
       transform="matrix(1.1310535 0 0 1.1310535 669.70883 256.83868)"
       id="path15" />
  </g>
  <g
     id="Eyes_copy_2"
     data-name="Eyes copy 2"
     transform="matrix(2.8263349,0,0,2.8263349,133.57227,74.496928)"
     inkscape:label="Monochrome dark"
     style="fill:#000000">
    <path
       class="cls-1"
       d="m 85.19,80.58 c -0.49,0.95 -1.46,1.56 -2.53,1.58 l -10.7,0.23 C 70.85,82.38 69.84,81.82 69.32,80.84 L 65.14,72.92 H 47.46 l -4.18,7.92 c -0.51,0.96 -1.49,1.55 -2.58,1.55 H 40.64 L 29.94,82.16 C 28.87,82.14 27.9,81.53 27.41,80.58 l -4.1,-7.97 -9.76,-0.4 c 4.52,13.06 16.59,20.16 30.72,22.34 18.74,2.89 43.04,-0.12 52.96,-18.52 0.67,-1.24 1.18,-2.52 1.59,-3.81 l -9.54,0.39 -4.1,7.97 z"
       id="path1-8"
       inkscape:label="head_bottom"
       style="fill:#000000" />
    <path
       class="cls-1"
       d="m 103.69,24.96 c -4.64,-2.9 -7.48,0.47 -11.52,1.26 -1.45,0.28 -1.49,-0.68 -2.28,-1.49 -1.43,-1.44 -2.84,-2.95 -4.42,-4.22 -0.25,-0.3 -0.27,-0.66 -0.25,-1.03 0.21,-4.37 2.26,-7.77 -0.45,-12 -2.84,-4.42 -12.53,-7.7 -17.58,-7.47 -5.32,0.25 -6.13,5.54 -7.99,9.3 -1.09,2.21 -1.58,2.42 -4.21,2.1 C 54.05,11.3 53.86,10.88 53.43,10.12 50.89,5.65 50.87,-0.18 44.01,0.02 38.65,0.18 28.8,3.55 26.72,8.97 c -1.53,4.01 0.39,7.32 0.17,11.34 -1.51,1.34 -2.94,2.77 -4.34,4.21 -0.75,0.76 -0.99,1.87 -2.28,1.69 -3.58,-0.49 -5.99,-3.5 -10.38,-1.95 -3.74,1.32 -8.54,9.57 -9.44,13.34 -1.93,8.03 2.95,7.81 7.37,12.24 4.2,4.21 3.45,10.2 4.19,15.74 0.15,1.14 0.36,2.25 0.61,3.32 l 11.04,0.45 c 1.05,0.04 1.99,0.65 2.47,1.58 l 4.09,7.97 10.29,0.22 4.18,-7.92 c 0.51,-0.96 1.49,-1.55 2.58,-1.55 h 18.08 c 1.08,0 2.07,0.59 2.58,1.55 l 4.18,7.92 10.29,-0.22 4.09,-7.97 c 0.48,-0.93 1.43,-1.54 2.47,-1.58 l 10.68,-0.44 c 0.82,-4.27 0.89,-8.71 1.65,-13.05 1.36,-7.72 10.13,-9.07 10.91,-13.7 0.8,-4.78 -4.5,-14.72 -8.51,-17.22 z m -60.34,29.7 c -3.13,6.62 -10.53,9.7 -16.52,6.86 -6,-2.83 -8.32,-10.5 -5.19,-17.12 3.13,-6.62 10.53,-9.7 16.52,-6.86 6,2.83 8.32,10.5 5.19,17.12 z m 15.04,4.92 c 0,1.24 -1,2.24 -2.24,2.24 H 56 c -1.24,0 -2.24,-1 -2.24,-2.24 v -5.06 c 0,-1.24 1,-2.24 2.24,-2.24 h 0.15 c 1.24,0 2.24,1 2.24,2.24 z m 27.01,1.94 c -6,2.83 -13.4,-0.24 -16.52,-6.86 -3.13,-6.62 -0.81,-14.29 5.19,-17.12 6,-2.83 13.39,0.24 16.52,6.86 3.13,6.62 0.8,14.29 -5.19,17.12 z"
       id="path2-3"
       inkscape:label="head_top"
       style="fill:#000000" />
    <ellipse
       class="cls-1"
       cx="33.959999"
       cy="50.169998"
       rx="8.6400003"
       ry="7.8200002"
       transform="rotate(-60,33.954724,50.168692)"
       id="ellipse1"
       inkscape:label="eye_L"
       style="fill:#000000" />
    <ellipse
       class="cls-1"
       cx="78.269997"
       cy="50.169998"
       rx="7.8200002"
       ry="8.6400003"
       transform="rotate(-30,78.275925,50.173971)"
       id="ellipse2"
       inkscape:label="eye_R"
       style="fill:#000000" />
  </g>
</svg>
