<?xml version="1.0" encoding="UTF-8" standalone="no"?>
<svg
   height="333.05"
   viewBox="0 0 884.99998 312.23336"
   width="944"
   version="1.1"
   id="svg3"
   sodipodi:docname="new_logo_small_monochrome_dark.svg"
   inkscape:version="1.3 (0e150ed6c4, 2023-07-21)"
   xmlns:inkscape="http://www.inkscape.org/namespaces/inkscape"
   xmlns:sodipodi="http://sodipodi.sourceforge.net/DTD/sodipodi-0.dtd"
   xmlns="http://www.w3.org/2000/svg"
   xmlns:svg="http://www.w3.org/2000/svg">
  <defs
     id="defs3">
    <clipPath
       id="clippath">
      <path
         class="cls-2"
         d="m 85.46,20.51 c 1.58,1.27 2.99,2.78 4.42,4.22 0.79,0.8 0.84,1.77 2.28,1.49 4.05,-0.79 6.88,-4.16 11.52,-1.26 4.01,2.51 9.32,12.44 8.51,17.22 -0.81,4.78 -9.55,5.99 -10.91,13.7 -1.2,6.81 -0.68,13.87 -4.06,20.15 C 87.3,94.42 63,97.44 44.26,94.55 27.91,92.03 14.29,82.92 11.98,65.6 11.24,60.05 11.98,54.06 7.79,49.86 3.37,45.43 -1.51,45.65 0.42,37.62 1.33,33.85 6.13,25.6 9.86,24.28 c 4.39,-1.55 6.8,1.45 10.38,1.95 1.29,0.18 1.54,-0.93 2.28,-1.69 1.41,-1.44 2.84,-2.88 4.34,-4.21 C 27.09,16.31 25.16,13 26.69,8.99 28.8,3.55 38.65,0.18 44.01,0.02 c 6.86,-0.21 6.88,5.63 9.42,10.1 0.43,0.75 0.62,1.18 1.56,1.29 2.63,0.31 3.12,0.1 4.21,-2.1 1.86,-3.76 2.67,-9.05 7.99,-9.3 5.32,-0.25 14.74,3.05 17.57,7.47 2.83,4.42 0.66,7.63 0.45,12 -0.02,0.37 0,0.73 0.25,1.03 z"
         id="path1-4" />
    </clipPath>
  </defs>
  <sodipodi:namedview
     id="namedview3"
     pagecolor="#505050"
     bordercolor="#ffffff"
     borderopacity="1"
     inkscape:showpageshadow="0"
     inkscape:pageopacity="0"
     inkscape:pagecheckerboard="1"
     inkscape:deskcolor="#505050"
     inkscape:zoom="1.2129237"
     inkscape:cx="232.9083"
     inkscape:cy="180.14323"
     inkscape:window-width="1920"
     inkscape:window-height="1057"
     inkscape:window-x="1912"
     inkscape:window-y="-8"
     inkscape:window-maximized="1"
     inkscape:current-layer="svg3" />
  <path
     d="m435.0375 98.735c-16.39125.0-29.20875 5.16075-38.465 15.48125-9.26338 10.32513-13.88625 23.72625-13.88625 40.225.0 19.37125 4.73213 34.05625 14.19625 44.05875 9.481 10.00138 21.92875 14.99625 37.36125 14.99625 8.29913.0 15.665-.71548 22.10125-2.15337 6.44275-1.43225 10.72525-2.90175 12.85625-4.389l.63904-49.94875c0-2.9025-7.66113-4.22188-16.25375-4.36888-8.59313-.1329-18.4275 1.659-18.4275 1.659v16.7725h9.8895l-.10988 7.47625c0 2.76963-2.74575 4.16013-8.2215 4.16013-5.48275.0-10.32525-2.32038-14.52625-6.95063-4.21037-4.63587-6.30437-11.41337-6.30437-20.3425.0-8.948 2.046-15.54375 6.14325-19.80125 4.08875-4.25275 9.44925-6.38675 16.04125-6.38675 2.76962.0 5.637.44673 8.61875 1.35863 2.98312.90341 4.97462 1.75012 5.99125 2.54337 1.00805.81578 1.96662 1.203 2.87287 1.203.90202.0 2.36325-1.05624 4.3835-3.18975 2.02325-2.12775 3.8355-5.35212 5.43463-9.6515 1.592-4.322 2.3895-7.635 2.3895-9.98475.0-2.33137-.0524-3.93812-.15564-4.78637-2.23525-2.44588-6.36075-4.38613-12.37787-5.82825-6.00588-1.43788-12.74-2.151505-20.18875-2.151505zm97.93.0c-15.05875.0-27.3525 4.84225-36.875 14.51875-9.52062 9.68888-14.28 23.9175-14.28 42.70875.0 18.78125 4.70663 33.0675 14.115 42.8575 9.42162 9.78225 21.61 14.67375 36.55875 14.67375 14.955.0 27.15875-4.70263 36.63375-14.11 9.47537-9.42738 14.20875-23.79375 14.20875-43.10875.0-19.3-4.6265-33.73-13.89375-43.25-9.25062-9.53763-21.41125-14.29125-36.4675-14.29125zm211.7.0c-15.06375.0-27.35 4.84225-36.88125 14.51875-9.51925 9.68888-14.27875 23.9175-14.27875 42.70875.0 18.78125 4.70812 33.0675 14.12875 42.8575 9.41325 9.78225 21.59375 14.67375 36.5475 14.67375 14.94875.0 27.1625-4.70263 36.63375-14.11 9.474-9.42738 14.20875-23.79375 14.20875-43.10875.0-19.3-4.62625-33.73-13.88625-43.25-9.26187-9.53763-21.41375-14.29125-36.4725-14.29125zm-140.0625 1.42825c-2.13487.0-3.86162.77861-5.18925 2.31263-1.336 1.558-1.99775 3.65862-1.99775 6.32075v95.76375c0 4.89887 2.71925 7.34074 8.14275 7.34074h27.28875c33.415.0 50.12875-19.57625 50.12875-58.73875.0-18.30624-4.393-31.70749-13.18-40.21875-8.77137-8.514-21.62-12.78125-38.53625-12.78125zm199.15.0c-1.81112.0-3.08825 2.45888-3.8305 7.3535-.31951 2.33987-.47241 4.74037-.47241 7.17775.0 2.4515.1529 4.84213.47241 7.17775.74226 4.90738 2.0195 7.34988 3.8305 7.34988h19.15125v80.13625c0 2.11512 5.2755 3.18787 15.80625 3.18787 10.54.0 15.8025-1.0728 15.8025-3.18787v-80.13625h18.67625c1.80825.0 3.08063-2.4425 3.83425-7.34988.31245-2.33562.47424-4.72612.47424-7.17775.0-2.43738-.16179-4.83787-.47424-7.17775-.75356-4.89463-2.026-7.3535-3.83425-7.3535zm-271.2 29.22c5.11237.0 9.39637 2.286 12.85 6.8555 3.45825 4.57512 5.19287 11.12687 5.19287 19.6375.0 8.51825-1.67962 15.06125-5.03175 19.6325-3.35212 4.58787-7.71775 6.87375-13.08999 6.87375-5.37538.0-9.7075-2.25913-13.00626-6.79325-3.30412-4.52-4.95299-11.00575-4.95299-19.47875.0-8.45463 1.73437-15.025 5.1855-19.70625 3.4695-4.67687 7.74687-7.02213 12.8525-7.02213zm211.7.0c5.11238.0 9.39075 2.286 12.85 6.8555 3.45825 4.57512 5.18925 11.12687 5.18925 19.6375.0 8.51825-1.67813 15.06125-5.03175 19.6325-3.34788 4.58787-7.71625 6.87375-13.09 6.87375-5.37538.0-9.71175-2.25913-13.00625-6.79325-3.29425-4.52-4.9475-11.00575-4.9475-19.47875.0-8.45463 1.72663-15.025 5.17637-19.70625 3.46388-4.67687 7.75275-7.02213 12.86001-7.02213zm-116.19875 1.10596h1.59662c6.81038.0 11.7875 1.55725 14.93 4.6435 3.12738 3.07788 4.70026 9.70425 4.70026 19.8725 1e-5 10.16388-1.50351 17.42-4.54463 21.77875-3.034 4.363-7.47125 6.5515-13.33 6.5515-1.592.0-2.5525-.294-2.86925-.88073-.31951-.58957-.48339-1.99463-.48339-4.22425z"
     fill="#fefefe"
     stroke-width="1.25"
     id="path1" />
  <g
     fill="#ffffff"
     id="g3"
     style="display:none">
    <path
       d="m 141.91016,7.9980469 c -15.358,3.4143001 -30.55093,8.1665381 -44.794926,15.3359371 0.325751,12.577 1.138809,24.628141 2.78711,36.869141 -5.5316,3.544 -11.344719,6.586075 -16.511719,10.734375 -5.2496,4.038601 -10.612234,7.903653 -15.365234,12.626953 C 58.529091,77.283353 48.479,71.378969 38.125,66.167969 26.964,78.179969 16.526953,91.145343 8.0019531,105.65234 c 6.4137999,10.376 13.1098439,20.10108 20.3398439,29.33008 h 0.201172 v 89.03906 c 0.162869,0.001 0.326921,0.009 0.488281,0.0234 l 54.585938,5.26172 c 2.8593,0.27598 5.099828,2.57796 5.298828,5.44336 l 1.683593,24.0957 47.615231,3.39844 3.2793,-22.24023 c 0.42526,-2.88341 2.89981,-5.01953 5.81641,-5.01953 h 57.58984 c 2.9151,0 5.38925,2.13612 5.81445,5.01953 l 3.2793,22.24023 47.61719,-3.39844 1.68164,-24.0957 c 0.20057,-2.8653 2.43952,-5.16586 5.29883,-5.44336 l 54.56445,-5.26172 c 0.16135,-0.0151 0.32347,-0.0218 0.48633,-0.0234 v -7.10546 l 0.0234,-0.008 v -81.92578 h 0.20117 c 7.2312,-9.2294 13.92285,-18.95507 20.33984,-29.33008 -8.52209,-14.507997 -18.96401,-27.473372 -30.125,-39.484371 -10.35101,5.2104 -20.40634,11.114484 -29.90234,17.396484 -4.7519,-4.7233 -10.10434,-8.588253 -15.36133,-12.626953 -5.16521,-4.148701 -10.98681,-7.190775 -16.50781,-10.734375 1.6438,-12.241001 2.45786,-24.29214 2.78515,-36.869141 C 240.85074,16.164051 225.65896,11.412047 210.29297,7.9980469 204.15816,18.309047 198.54811,29.472672 193.66211,40.388672 c -5.794,-0.96819 -11.61536,-1.327085 -17.44336,-1.396484 v -0.0078 c -0.0408,0 -0.0786,0.0078 -0.11328,0.0078 -0.036,0 -0.0751,-0.0078 -0.11133,-0.0078 v 0.0078 c -5.8393,0.06933 -11.65617,0.428283 -17.45117,1.396484 C 153.65986,29.473671 148.05416,18.309047 141.91016,7.9980469 Z M 98.722656,138.24805 c 18.169004,0 32.896484,14.71589 32.896484,32.8789 0,18.175 -14.72748,32.89844 -32.896484,32.89844 -18.161,0 -32.890625,-14.72344 -32.890625,-32.89844 0,-18.16299 14.730624,-32.8789 32.890625,-32.8789 z m 154.759764,0 c 18.159,0 32.88672,14.71589 32.88672,32.8789 0,18.175 -14.72772,32.89844 -32.88672,32.89844 -18.172,0 -32.89648,-14.72344 -32.89648,-32.89844 0,-18.16299 14.72448,-32.8789 32.89648,-32.8789 z m -77.38672,19.24023 c 5.84871,0 10.59961,4.31464 10.59961,9.62305 v 30.2832 c 0,5.3129 -4.75121,9.62305 -10.59961,9.62305 -5.8484,0 -10.58789,-4.31015 -10.58789,-9.62305 v -30.2832 c 0,-5.30841 4.73959,-9.62305 10.58789,-9.62305 z M 28.449219,235.79883 c 0.02267,5.2752 0.08984,11.05213 0.08984,12.20312 0,51.838 65.760941,76.75401 147.460938,77.04102 h 0.20117 c 81.70101,-0.28655 147.43945,-25.20302 147.43945,-77.04102 0,-1.17179 0.0716,-6.92492 0.0957,-12.20312 l -49.06445,4.73242 -1.69141,24.22461 c -0.2036,2.9196 -2.52572,5.24352 -5.44531,5.45312 l -58.14454,4.14844 c -0.14176,0.0107 -0.28358,0.0156 -0.42382,0.0156 -2.88951,0 -5.3818,-2.12195 -5.8086,-5.02344 l -3.33398,-22.61133 h -47.44336 l -3.33398,22.61133 c -0.44791,3.0433 -3.16802,5.23252 -6.23243,5.00781 l -58.144528,-4.14844 c -2.9196,-0.20961 -5.241713,-2.53352 -5.445313,-5.45312 l -1.689453,-24.22461 -49.083984,-4.73242 z"
       transform="matrix(0.93749998,0,0,0.93749998,0,-4.98e-4)"
       id="path2" />
    <path
       d="m 95.503125,141.79437 c -11.305312,0 -20.469375,9.16913 -20.469375,20.47125 0,11.30213 9.164438,20.46188 20.469375,20.46188 11.310935,0 20.471255,-9.15994 20.471255,-20.46188 0,-11.30193 -9.16069,-20.47125 -20.471255,-20.47125 z m 139.181255,0 c -11.30251,0 -20.46001,9.16913 -20.46001,20.47125 0,11.30213 9.15816,20.46188 20.46001,20.46188 11.31375,0 20.46937,-9.15994 20.46937,-20.46188 0,-11.30193 -9.156,-20.47125 -20.46937,-20.47125 z"
       stroke-width="0.9375"
       id="path3" />
  </g>
  <g
     id="Eyes_copy_2"
     data-name="Eyes copy 2"
     transform="matrix(2.6691645,0,0,2.6691645,20.64225,29.69433)"
     inkscape:label="Monochrome dark">
    <path
       class="cls-1"
       d="m 85.19,80.58 c -0.49,0.95 -1.46,1.56 -2.53,1.58 l -10.7,0.23 C 70.85,82.38 69.84,81.82 69.32,80.84 L 65.14,72.92 H 47.46 l -4.18,7.92 c -0.51,0.96 -1.49,1.55 -2.58,1.55 H 40.64 L 29.94,82.16 C 28.87,82.14 27.9,81.53 27.41,80.58 l -4.1,-7.97 -9.76,-0.4 c 4.52,13.06 16.59,20.16 30.72,22.34 18.74,2.89 43.04,-0.12 52.96,-18.52 0.67,-1.24 1.18,-2.52 1.59,-3.81 l -9.54,0.39 -4.1,7.97 z"
       id="path1-8"
       inkscape:label="head_bottom"
       style="fill:#ffffff" />
    <path
       class="cls-1"
       d="m 103.69,24.96 c -4.64,-2.9 -7.48,0.47 -11.52,1.26 -1.45,0.28 -1.49,-0.68 -2.28,-1.49 -1.43,-1.44 -2.84,-2.95 -4.42,-4.22 -0.25,-0.3 -0.27,-0.66 -0.25,-1.03 0.21,-4.37 2.26,-7.77 -0.45,-12 -2.84,-4.42 -12.53,-7.7 -17.58,-7.47 -5.32,0.25 -6.13,5.54 -7.99,9.3 -1.09,2.21 -1.58,2.42 -4.21,2.1 C 54.05,11.3 53.86,10.88 53.43,10.12 50.89,5.65 50.87,-0.18 44.01,0.02 38.65,0.18 28.8,3.55 26.72,8.97 c -1.53,4.01 0.39,7.32 0.17,11.34 -1.51,1.34 -2.94,2.77 -4.34,4.21 -0.75,0.76 -0.99,1.87 -2.28,1.69 -3.58,-0.49 -5.99,-3.5 -10.38,-1.95 -3.74,1.32 -8.54,9.57 -9.44,13.34 -1.93,8.03 2.95,7.81 7.37,12.24 4.2,4.21 3.45,10.2 4.19,15.74 0.15,1.14 0.36,2.25 0.61,3.32 l 11.04,0.45 c 1.05,0.04 1.99,0.65 2.47,1.58 l 4.09,7.97 10.29,0.22 4.18,-7.92 c 0.51,-0.96 1.49,-1.55 2.58,-1.55 h 18.08 c 1.08,0 2.07,0.59 2.58,1.55 l 4.18,7.92 10.29,-0.22 4.09,-7.97 c 0.48,-0.93 1.43,-1.54 2.47,-1.58 l 10.68,-0.44 c 0.82,-4.27 0.89,-8.71 1.65,-13.05 1.36,-7.72 10.13,-9.07 10.91,-13.7 0.8,-4.78 -4.5,-14.72 -8.51,-17.22 z m -60.34,29.7 c -3.13,6.62 -10.53,9.7 -16.52,6.86 -6,-2.83 -8.32,-10.5 -5.19,-17.12 3.13,-6.62 10.53,-9.7 16.52,-6.86 6,2.83 8.32,10.5 5.19,17.12 z m 15.04,4.92 c 0,1.24 -1,2.24 -2.24,2.24 H 56 c -1.24,0 -2.24,-1 -2.24,-2.24 v -5.06 c 0,-1.24 1,-2.24 2.24,-2.24 h 0.15 c 1.24,0 2.24,1 2.24,2.24 z m 27.01,1.94 c -6,2.83 -13.4,-0.24 -16.52,-6.86 -3.13,-6.62 -0.81,-14.29 5.19,-17.12 6,-2.83 13.39,0.24 16.52,6.86 3.13,6.62 0.8,14.29 -5.19,17.12 z"
       id="path2-3"
       inkscape:label="head_top"
       style="fill:#ffffff" />
    <ellipse
       class="cls-1"
       cx="33.959999"
       cy="50.169998"
       rx="8.6400003"
       ry="7.8200002"
       transform="rotate(-60,33.954724,50.168692)"
       id="ellipse1"
       inkscape:label="eye_L"
       style="fill:#ffffff" />
    <ellipse
       class="cls-1"
       cx="78.269997"
       cy="50.169998"
       rx="7.8200002"
       ry="8.6400003"
       transform="rotate(-30,78.275925,50.173971)"
       id="ellipse2"
       inkscape:label="eye_R"
       style="fill:#ffffff" />
  </g>
</svg>
