<?xml version="1.0" encoding="UTF-8" standalone="no"?>
<svg
   height="1024"
   width="1024"
   version="1.1"
   id="svg4"
   sodipodi:docname="new_icon_monochrome_dark.svg"
   xml:space="preserve"
   inkscape:version="1.3 (0e150ed6c4, 2023-07-21)"
   inkscape:export-filename="new_icon_monochrome_dark.png"
   inkscape:export-xdpi="96"
   inkscape:export-ydpi="96"
   xmlns:inkscape="http://www.inkscape.org/namespaces/inkscape"
   xmlns:sodipodi="http://sodipodi.sourceforge.net/DTD/sodipodi-0.dtd"
   xmlns="http://www.w3.org/2000/svg"
   xmlns:svg="http://www.w3.org/2000/svg"><defs
     id="defs4"><style
       id="style1">&#10;      .cls-1 {&#10;        fill: #fff;&#10;      }&#10;    </style></defs><sodipodi:namedview
     id="namedview4"
     pagecolor="#505050"
     bordercolor="#ffffff"
     borderopacity="1"
     inkscape:showpageshadow="0"
     inkscape:pageopacity="0"
     inkscape:pagecheckerboard="1"
     inkscape:deskcolor="#505050"
     inkscape:zoom="0.29727487"
     inkscape:cx="378.43764"
     inkscape:cy="627.36551"
     inkscape:window-width="1350"
     inkscape:window-height="1041"
     inkscape:window-x="2149"
     inkscape:window-y="7"
     inkscape:window-maximized="0"
     inkscape:current-layer="svg4" /><g
     id="New_Logo"
     data-name="New Logo"
     transform="matrix(8.554917,0,0,8.554917,28.840063,115.4688)"
     style="display:inline"
     inkscape:label="Monochrome dark"><path
       class="cls-1"
       d="m 112.88,42.48 c -0.28,-1.18 -0.84,-2.26 -1.42,-3.37 l -5.03,-9.72 c -1.19,-2.31 -2.52,-4.38 -4.12,-6.39 -0.52,-0.65 -1.3,-0.97 -2.14,-0.68 -1.4,0.49 -2.81,0.89 -4.17,1.47 l -3.38,1.44 c -0.97,0.42 -1.69,0.39 -2.51,-0.38 L 86.37,21.3 C 86.05,20.11 86.48,18.97 86.6,17.79 86.81,15.81 87.19,14 87.63,12.07 87.92,10.83 88.1,9.42 87.65,8.25 87.19,7.04 85.99,6.58 84.9,6.06 78.64,3.03 74.28,0.82 67.24,0 c -0.61,-0.08 -1.87,0.52 -2.15,1.06 -0.99,1.9 -2.62,6.79 -4.12,9.82 -0.72,1.46 -1.7,-0.05 -7.74,0.66 -0.6,0.07 -1,-0.21 -1.23,-0.66 C 50.94,8.75 50.15,6.58 49.25,4.38 48.81,3.31 48.48,2.26 47.96,1.2 47.51,0.25 46.04,-0.08 45.02,0.07 42.85,0.39 40.8,0.73 38.74,1.42 34.97,2.69 31.48,4.38 27.91,6.11 c -1.05,0.5 -2.18,0.97 -2.62,2.14 -0.44,1.18 -0.26,2.56 0.03,3.8 0.44,1.92 0.82,3.74 1.02,5.71 0.13,1.21 0.53,2.31 0.26,3.54 l -4.37,4.01 c -0.72,0.67 -3.91,-0.92 -4.84,-1.35 -1.56,-0.72 -3.18,-1.18 -4.83,-1.71 -0.75,-0.23 -1.46,0.17 -1.91,0.73 -1.59,1.98 -2.9,4.01 -4.07,6.28 l -5.16,9.98 c -0.56,1.08 -1.1,2.12 -1.35,3.28 -0.29,1.35 0.32,2.12 1.48,2.66 1.75,0.81 7.28,4.63 8.26,5.71 1.21,1.32 1.86,2.72 1.9,4.69 0.07,3.89 0.36,7.59 1.04,11.15 l 16.67,1.83 c 0.98,0.12 1.72,0.87 1.83,1.82 l 0.73,6.17 12.48,0.82 1.3,-6.03 c 0.21,-0.95 1.06,-1.65 2.02,-1.65 H 65.1 c 0.97,0 1.82,0.69 2.02,1.64 l 1.3,6.03 12.5,-0.82 0.7,-6.14 c 0.11,-0.96 0.85,-1.71 1.81,-1.83 L 100.2,66.7 c 0.73,-3.73 0.93,-7.42 1.04,-11.22 0.06,-1.87 0.68,-3.27 1.9,-4.6 0.99,-1.07 6.44,-4.86 8.14,-5.65 1.22,-0.57 1.94,-1.34 1.6,-2.77 z M 43.82,54 c -3.13,6.62 -10.53,9.7 -16.52,6.86 -6,-2.83 -8.32,-10.5 -5.19,-17.12 3.13,-6.62 10.53,-9.7 16.52,-6.86 6,2.83 8.32,10.5 5.19,17.12 z M 59,58.8 c 0,1.3 -1.06,2.36 -2.36,2.36 h -0.42 c -1.3,0 -2.36,-1.06 -2.36,-2.36 v -4.82 c 0,-1.3 1.06,-2.36 2.36,-2.36 h 0.42 c 1.3,0 2.36,1.06 2.36,2.36 z m 26.66,2.06 c -6,2.83 -13.39,-0.24 -16.52,-6.86 -3.13,-6.62 -0.8,-14.29 5.19,-17.12 5.99,-2.83 13.39,0.24 16.52,6.86 3.13,6.62 0.8,14.29 -5.19,17.12 z"
       id="path1"
       style="display:inline;fill:#ffffff"
       inkscape:label="Head_top" /><path
       class="cls-1"
       d="M 84.31,78.15 C 84.2,79.16 83.39,79.94 82.37,80 l -14.92,0.97 c 0,0 -0.09,0 -0.14,0 -0.98,0 -1.82,-0.67 -2.03,-1.64 L 63.95,73.19 H 48.97 c 0,0 -1.33,6.13 -1.33,6.13 -0.22,1 -1.15,1.72 -2.18,1.64 L 30.54,79.99 C 29.53,79.93 28.72,79.15 28.6,78.14 L 27.91,71.93 13.6,70.35 c 0.98,3.47 2.42,6.82 4.53,10.07 3.23,3.99 7.13,7.13 11.77,9.34 6.49,3.1 13.39,4.61 20.57,5.05 10.95,0.67 22.5,-0.21 32.45,-5.01 4.61,-2.22 8.79,-5.28 11.82,-9.43 2.2,-3.03 3.61,-6.46 4.59,-10.02 l -14.35,1.58 -0.68,6.21 z"
       id="path2"
       style="display:inline;fill:#ffffff"
       inkscape:label="Head_bottom" /><path
       class="cls-1"
       d="m 38.74,42.02 c -3.74,-2.16 -8.71,-0.56 -11.1,3.57 -2.39,4.13 -1.29,9.24 2.46,11.4 3.74,2.16 8.71,0.56 11.1,-3.57 2.39,-4.13 1.29,-9.24 -2.46,-11.4 z"
       id="path3"
       style="display:inline;fill:#ffffff"
       inkscape:label="Left_eye" /><ellipse
       class="cls-1"
       cx="78.529999"
       cy="49.509998"
       rx="7.8200002"
       ry="8.6400003"
       transform="rotate(-30,78.535565,49.503542)"
       id="ellipse3"
       style="display:inline;fill:#ffffff"
       inkscape:label="Right_eye" /></g></svg>
