<?xml version="1.0" encoding="UTF-8" standalone="no"?>
<svg
   height="414"
   viewBox="0 0 959.99998 388.125"
   width="1024"
   version="1.1"
   id="svg20"
   sodipodi:docname="new_logo_large_monochrome_dark.svg"
   xml:space="preserve"
   inkscape:version="1.3 (0e150ed6c4, 2023-07-21)"
   inkscape:export-filename="new_logo_large_monochrome_dark.png"
   inkscape:export-xdpi="237.44928"
   inkscape:export-ydpi="237.44928"
   xmlns:inkscape="http://www.inkscape.org/namespaces/inkscape"
   xmlns:sodipodi="http://sodipodi.sourceforge.net/DTD/sodipodi-0.dtd"
   xmlns="http://www.w3.org/2000/svg"
   xmlns:svg="http://www.w3.org/2000/svg"><defs
     id="defs20"><clipPath
       id="clippath"><path
         class="cls-2"
         d="m 85.46,20.51 c 1.58,1.27 2.99,2.78 4.42,4.22 0.79,0.8 0.84,1.77 2.28,1.49 4.05,-0.79 6.88,-4.16 11.52,-1.26 4.01,2.51 9.32,12.44 8.51,17.22 -0.81,4.78 -9.55,5.99 -10.91,13.7 -1.2,6.81 -0.68,13.87 -4.06,20.15 C 87.3,94.42 63,97.44 44.26,94.55 27.91,92.03 14.29,82.92 11.98,65.6 11.24,60.05 11.98,54.06 7.79,49.86 3.37,45.43 -1.51,45.65 0.42,37.62 1.33,33.85 6.13,25.6 9.86,24.28 c 4.39,-1.55 6.8,1.45 10.38,1.95 1.29,0.18 1.54,-0.93 2.28,-1.69 1.41,-1.44 2.84,-2.88 4.34,-4.21 C 27.09,16.31 25.16,13 26.69,8.99 28.8,3.55 38.65,0.18 44.01,0.02 c 6.86,-0.21 6.88,5.63 9.42,10.1 0.43,0.75 0.62,1.18 1.56,1.29 2.63,0.31 3.12,0.1 4.21,-2.1 1.86,-3.76 2.67,-9.05 7.99,-9.3 5.32,-0.25 14.74,3.05 17.57,7.47 2.83,4.42 0.66,7.63 0.45,12 -0.02,0.37 0,0.73 0.25,1.03 z"
         id="path1-4" /></clipPath><style
       id="style1">&#10;      .cls-1 {&#10;        fill: #fff;&#10;      }&#10;    </style><clipPath
       id="clippath-0-8"><path
         class="cls-3"
         d="m 119.71,62.55 c -1.7,0.79 -7.15,4.58 -8.14,5.65 -1.22,1.33 -1.84,2.73 -1.9,4.6 -0.12,4.21 -0.35,8.28 -1.29,12.43 -1,4.42 -2.51,8.74 -5.21,12.45 -3.03,4.15 -7.21,7.21 -11.82,9.43 -9.95,4.8 -21.5,5.68 -32.45,5.01 -7.18,-0.44 -14.08,-1.95 -20.57,-5.05 -4.64,-2.21 -8.54,-5.35 -11.77,-9.34 C 21.63,90.11 20.31,82.02 20.14,72.89 20.1,70.92 19.45,69.52 18.24,68.2 17.26,67.12 11.73,63.3 9.98,62.49 8.82,61.95 8.21,61.18 8.5,59.83 8.75,58.67 9.29,57.63 9.85,56.55 l 5.16,-9.98 c 1.17,-2.27 2.48,-4.3 4.07,-6.28 0.45,-0.56 1.16,-0.96 1.91,-0.73 1.65,0.53 3.27,0.99 4.83,1.71 0.93,0.43 4.12,2.02 4.84,1.35 l 4.37,-4.01 c 0.27,-1.23 -0.13,-2.33 -0.26,-3.54 -0.2,-1.97 -0.58,-3.79 -1.02,-5.71 -0.29,-1.24 -0.47,-2.62 -0.03,-3.8 0.44,-1.17 1.57,-1.64 2.62,-2.14 3.57,-1.73 7.06,-3.42 10.83,-4.69 2.06,-0.69 4.11,-1.03 6.28,-1.35 1.02,-0.15 2.49,0.18 2.94,1.13 0.52,1.06 0.85,2.11 1.29,3.18 0.9,2.2 1.69,4.37 2.75,6.5 0.23,0.45 0.63,0.73 1.23,0.66 6.04,-0.71 7.02,0.8 7.74,-0.66 1.5,-3.03 3.13,-7.92 4.12,-9.82 0.28,-0.54 1.54,-1.14 2.15,-1.06 7.04,0.81 11.4,3.02 17.66,6.05 1.09,0.52 2.29,0.98 2.75,2.19 0.45,1.17 0.27,2.58 -0.02,3.82 -0.44,1.93 -0.82,3.74 -1.03,5.72 -0.12,1.18 -0.55,2.32 -0.23,3.51 l 3.74,3.55 c 0.82,0.77 1.54,0.8 2.51,0.38 l 3.38,-1.44 c 1.36,-0.58 2.77,-0.98 4.17,-1.47 0.84,-0.29 1.62,0.03 2.14,0.68 1.6,2.01 2.93,4.08 4.12,6.39 l 5.03,9.72 c 0.58,1.11 1.14,2.19 1.42,3.37 0.34,1.43 -0.38,2.2 -1.6,2.77 z"
         id="path1-7" /></clipPath></defs><sodipodi:namedview
     id="namedview20"
     pagecolor="#505050"
     bordercolor="#ffffff"
     borderopacity="1"
     inkscape:showpageshadow="0"
     inkscape:pageopacity="0"
     inkscape:pagecheckerboard="1"
     inkscape:deskcolor="#505050"
     inkscape:zoom="0.7906614"
     inkscape:cx="221.96607"
     inkscape:cy="225.76036"
     inkscape:window-width="1920"
     inkscape:window-height="1057"
     inkscape:window-x="-8"
     inkscape:window-y="-8"
     inkscape:window-maximized="1"
     inkscape:current-layer="g20" /><g
     fill="#fff"
     id="g20"
     inkscape:label="logo large monochrome dark"><g
       id="g21"
       inkscape:label="godot"><path
         d="m0 0c-3.611.0-6.636-1.659-9.09-4.967-2.441-3.311-3.668-7.958-3.668-13.938.0-5.993 1.166-10.581 3.503-13.778 2.333-3.207 5.398-4.804 9.2-4.804 3.8.0 6.887 1.617 9.258 4.862 2.371 3.233 3.559 7.861 3.559 13.886.0 6.02-1.227 10.654-3.673 13.89C6.646-1.617 3.616.0.0.0m-.055-59.493c-10.573.0-19.195 3.46-25.859 10.379-6.655 6.925-9.984 17.03-9.984 30.314.0 13.292 3.367 23.356 10.101 30.209 6.736 6.844 15.431 10.269 26.082 10.269 10.649.0 19.251-3.363 25.794-10.109 6.555-6.733 9.827-16.94 9.827-30.591.0-13.661-3.348-23.822-10.05-30.49-6.702-6.654-15.333-9.981-25.911-9.981"
         transform="matrix(1.41381688 0 0 -1.41381688 570.061916 153.354153)"
         id="path1" /><path
         d="m0 0v-33.768c0-1.577.116-2.571.342-2.988.224-.415.903-.623 2.029-.623 4.144.0 7.283 1.548 9.429 4.634 2.151 3.083 3.215 8.216 3.215 15.405.0 7.192-1.113 11.878-3.325 14.055-2.223 2.183-5.744 3.285-10.561 3.285zm-21.675-52.392v67.735c0 1.883.468 3.369 1.413 4.471.939 1.085 2.161 1.636 3.671 1.636H2.263c11.965.0 21.053-3.018 27.257-9.04 6.215-6.02 9.322-15.499 9.322-28.447.0-27.7-11.821-41.547-35.456-41.547h-19.302c-3.836.0-5.759 1.727-5.759 5.192"
         transform="matrix(1.41381688 0 0 -1.41381688 665.564378 154.460028)"
         id="path2" /><path
         d="m0 0c-3.612.0-6.645-1.659-9.095-4.967-2.44-3.311-3.662-7.958-3.662-13.938.0-5.993 1.169-10.581 3.499-13.778 2.33-3.207 5.398-4.804 9.2-4.804 3.801.0 6.89 1.617 9.258 4.862 2.372 3.233 3.56 7.861 3.56 13.886.0 6.02-1.225 10.654-3.671 13.89-2.447 3.232-5.473 4.849-9.089 4.849m-.058-59.493c-10.577.0-19.193 3.46-25.851 10.379-6.663 6.925-9.993 17.03-9.993 30.314.0 13.292 3.367 23.356 10.1 30.209 6.741 6.844 15.431 10.269 26.086 10.269 10.651.0 19.246-3.363 25.797-10.109 6.55-6.733 9.822-16.94 9.822-30.591.0-13.661-3.349-23.822-10.05-30.49-6.699-6.654-15.338-9.981-25.911-9.981"
         transform="matrix(1.41381688 0 0 -1.41381688 781.763328 153.354153)"
         id="path3" /><path
         d="m0 0c0-1.496-3.721-2.255-11.176-2.255-7.448.0-11.18.759-11.18 2.255v56.681h-13.545c-1.281.0-2.185 1.727-2.71 5.198-.226 1.652-.334 3.343-.334 5.077.0 1.724.108 3.422.334 5.077.525 3.462 1.429 5.202 2.71 5.202h49.112c1.279.0 2.179-1.74 2.712-5.202.221-1.655.335-3.353.335-5.077.0-1.734-.114-3.425-.335-5.077-.533-3.471-1.433-5.198-2.712-5.198h-13.211z"
         transform="matrix(1.41381688 0 0 -1.41381688 892.014153 233.329815)"
         id="path4" /><path
         d="m0 0c-6.078.094-13.034-1.173-13.034-1.173v-11.863h6.995l-.078-5.288c0-1.959-1.942-2.943-5.815-2.943-3.878.0-7.303 1.642-10.274 4.917-2.978 3.279-4.459 8.072-4.459 14.388.0 6.329 1.447 10.995 4.345 14.006 2.892 3.008 6.683 4.517 11.346 4.517 1.959.0 3.987-.316 6.096-.961 2.11-.639 3.519-1.238 4.238-1.799.713-.577 1.391-.85 2.032-.85.638.0 1.671.746 3.1 2.255 1.431 1.505 2.713 3.786 3.844 6.827 1.126 3.057 1.69 5.4 1.69 7.062.0 1.649-.036 2.786-.109 3.386-1.581 1.73-4.499 3.102-8.755 4.122-4.248 1.017-9.011 1.522-14.28 1.522-11.594.0-20.66-3.65-27.207-10.95-6.552-7.303-9.822-16.783-9.822-28.452.0-13.701 3.347-24.087 10.041-31.162 6.706-7.074 15.51-10.607 26.425-10.607 5.87.0 11.08.505 15.632 1.522 4.557 1.013 7.586 2.053 9.093 3.105l.452 35.33c0 2.053-5.418 2.985-11.496 3.089"
         transform="matrix(1.41381688 0 0 -1.41381688 491.081866 176.607765)"
         id="path5" /></g><g
       transform="matrix(1.25 0 0 -1.25 -94.249997 597.49874)"
       id="g15"
       inkscape:label="game engine"><path
         d="m0 0c-.624-1.28-1.771-2.454-3.449-3.516-1.676-1.069-3.805-1.6-6.391-1.6-3.412.0-6.156 1.075-8.24 3.249-2.076 2.157-3.116 5.266-3.116 9.323v10.116c0 3.969.98 7.013 2.946 9.138 1.962 2.108 4.59 3.177 7.872 3.177 3.208.0 5.695-.844 7.455-2.513 1.755-1.675 2.677-4.015 2.757-7.003l-.044-.133h-2.619c-.094 2.29-.759 4.057-2.01 5.305-1.244 1.238-3.095 1.864-5.539 1.864-2.473.0-4.432-.837-5.866-2.516-1.43-1.675-2.143-4.103-2.143-7.293v-10.174c0-3.308.771-5.83 2.311-7.567 1.54-1.724 3.616-2.588 6.236-2.588 1.913.0 3.451.339 4.602 1.033 1.155.684 1.956 1.519 2.409 2.51v8.861h-7.06v2.463h9.889z"
         transform="matrix(1.1310535 0 0 1.1310535 441.34721 235.75121)"
         id="path6" /><path
         d="m0 0c1.553.0 2.936.44 4.144 1.336 1.21.9 2.058 2.037 2.561 3.422v5.468H2.213c-1.91.0-3.44-.541-4.585-1.623-1.148-1.075-1.716-2.418-1.716-4.015.0-1.349.355-2.457 1.074-3.311.718-.857 1.722-1.277 3.014-1.277m7.124-2.04c-.14.876-.249 1.587-.318 2.144-.067.567-.101 1.131-.101 1.704C5.938.554 4.948-.486 3.725-1.301c-1.221-.821-2.579-1.228-4.075-1.228-2.092.0-3.701.648-4.84 1.946C-6.322.72-6.894 2.476-6.894 4.693c0 2.343.823 4.223 2.473 5.618 1.649 1.395 3.89 2.092 6.709 2.092h4.417v3.106c0 1.786-.456 3.193-1.351 4.21-.914 1.004-2.17 1.512-3.791 1.512-1.508.0-2.752-.479-3.728-1.45-.973-.965-1.456-2.144-1.456-3.549l-2.623.023-.046.137c-.074 1.906.647 3.591 2.168 5.084 1.515 1.489 3.459 2.229 5.825 2.229 2.338.0 4.22-.711 5.657-2.128 1.429-1.431 2.146-3.471 2.146-6.124V3.057c0-.903.042-1.78.121-2.617.081-.848.212-1.665.417-2.48z"
         transform="matrix(1.1310535 0 0 1.1310535 456.01527 232.82495)"
         id="path7" /><path
         d="m0 0 .24-3.923C.904-2.519 1.794-1.437 2.897-.668c1.107.759 2.41 1.138 3.906 1.138 1.527.0 2.814-.444 3.852-1.343 1.039-.896 1.805-2.252 2.292-4.074.623 1.682 1.505 3.011 2.65 3.973 1.145.964 2.534 1.444 4.143 1.444 2.217.0 3.937-.897 5.156-2.692 1.224-1.799 1.834-4.559 1.834-8.288v-14.765h-2.823v14.814c0 3.1-.429 5.283-1.263 6.538-.839 1.257-2.042 1.89-3.598 1.89-1.637.0-2.915-.691-3.834-2.096-.914-1.405-1.478-3.161-1.683-5.282v-.655-15.209H10.72v14.798c0 3.027-.424 5.194-1.292 6.488-.864 1.294-2.066 1.936-3.609 1.936-1.475.0-2.668-.45-3.562-1.342-.9-.897-1.54-2.125-1.928-3.683v-18.197h-2.806V0z"
         transform="matrix(1.1310535 0 0 1.1310535 476.7303 259.10521)"
         id="path8" /><path
         d="m0 0c-1.758.0-3.202-.802-4.334-2.402-1.133-1.606-1.718-3.585-1.765-5.944h11.66v1.082c0 2.086-.489 3.823-1.469 5.201-.986 1.379-2.347 2.063-4.092 2.063m.397-23.76c-2.725.0-4.954 1.026-6.685 3.073-1.726 2.043-2.591 4.657-2.591 7.841v4.197c0 3.19.867 5.85 2.602 7.965 1.739 2.105 3.828 3.158 6.277 3.158 2.648.0 4.699-.939 6.164-2.823 1.468-1.887 2.201-4.422 2.201-7.603v-2.773H-6.099v-2.102c0-2.447.586-4.484 1.752-6.11 1.168-1.63 2.755-2.438 4.744-2.438 1.382.0 2.585.244 3.588.724 1.003.491 1.863 1.179 2.578 2.082l1.149-1.988c-.763-.968-1.752-1.75-2.959-2.33-1.204-.577-2.659-.873-4.356-.873"
         transform="matrix(1.1310535 0 0 1.1310535 522.82277 256.83868)"
         id="path9" /><path
         d="m0 0c-1.763.0-3.21-.802-4.341-2.402-1.126-1.606-1.712-3.585-1.763-5.944H5.559v1.082c0 2.086-.488 3.823-1.474 5.201-.981 1.379-2.341 2.063-4.085 2.063m.394-23.76c-2.726.0-4.951 1.026-6.679 3.073-1.733 2.043-2.6 4.657-2.6 7.841v4.197c0 3.19.871 5.85 2.602 7.965 1.744 2.105 3.834 3.158 6.283 3.158 2.643.0 4.703-.939 6.164-2.823 1.463-1.887 2.197-4.422 2.197-7.603v-2.773H-6.104v-2.102c0-2.447.587-4.484 1.76-6.11 1.162-1.63 2.742-2.438 4.738-2.438 1.387.0 2.585.244 3.585.724 1.007.491 1.866 1.179 2.589 2.082l1.141-1.988c-.764-.968-1.75-1.75-2.959-2.33-1.204-.577-2.658-.873-4.356-.873"
         transform="matrix(1.1310535 0 0 1.1310535 558.0805 256.83868)"
         id="path10" /><path
         d="m0 0 .23-4.178C.904-2.695 1.794-1.544 2.912-.743c1.108.805 2.413 1.213 3.914 1.213 2.258.0 3.988-.835 5.189-2.513 1.214-1.675 1.815-4.279 1.815-7.812v-15.42h-2.825v15.394c0 2.888-.423 4.905-1.264 6.075-.836 1.17-2.065 1.753-3.665 1.753-1.435.0-2.638-.466-3.603-1.414-.969-.939-1.691-2.19-2.172-3.767v-18.041h-2.805V0z"
         transform="matrix(1.1310535 0 0 1.1310535 575.91679 259.10521)"
         id="path11" /><path
         d="m0 0c0-2.565.486-4.605 1.472-6.123.974-1.532 2.457-2.288 4.436-2.288 1.356.0 2.498.361 3.435 1.101.934.74 1.672 1.77 2.218 3.077v12.52c-.525 1.346-1.246 2.434-2.157 3.272-.91.824-2.062 1.238-3.448 1.238-1.975.0-3.468-.86-4.46-2.587-.999-1.73-1.496-3.986-1.496-6.756zm-2.833 3.454c0 3.582.723 6.459 2.177 8.627 1.442 2.157 3.448 3.239 6.004 3.239 1.419.0 2.664-.346 3.728-1.04 1.066-.681 1.947-1.678 2.654-2.946l.274 3.516h2.381v-25.298c0-3.239-.751-5.749-2.26-7.525-1.511-1.769-3.657-2.665-6.428-2.665-.996.0-2.067.156-3.212.459-1.147.303-2.162.701-3.052 1.2l.776 2.463c.759-.492 1.608-.873 2.548-1.141.932-.277 1.895-.41 2.894-.41 2.009.0 3.498.645 4.46 1.932.966 1.304 1.45 3.19 1.45 5.687v3.057c-.717-1.138-1.597-2.011-2.64-2.614-1.039-.606-2.253-.909-3.622-.909-2.539.0-4.53.994-5.968 2.982-1.441 1.984-2.164 4.631-2.164 7.932z"
         transform="matrix(1.1310535 0 0 1.1310535 600.8685 242.30884)"
         id="path12" /><path
         d="m627.82321 230.5176h-3.20089v28.58738h3.20089zm0 36.72644h-3.20089v4.50385h3.20089z"
         id="path13" /><path
         d="m0 0 .23-4.178C.906-2.695 1.792-1.544 2.908-.743c1.115.805 2.422 1.213 3.916 1.213 2.258.0 3.995-.835 5.199-2.513 1.211-1.675 1.807-4.279 1.807-7.812v-15.42h-2.825v15.394c0 2.888-.422 4.905-1.261 6.075-.843 1.17-2.063 1.753-3.668 1.753-1.434.0-2.635-.466-3.599-1.414C1.51-4.406.785-5.657.306-7.234v-18.041h-2.809V0z"
         transform="matrix(1.1310535 0 0 1.1310535 638.15379 259.10521)"
         id="path14" /><path
         d="m0 0c-1.763.0-3.208-.802-4.334-2.402-1.129-1.606-1.718-3.585-1.768-5.944H5.56v1.082c0 2.086-.486 3.823-1.47 5.201-.981 1.379-2.343 2.063-4.09 2.063m.401-23.76c-2.733.0-4.958 1.026-6.681 3.073-1.73 2.043-2.595 4.657-2.595 7.841v4.197c0 3.19.865 5.85 2.6 7.965 1.739 2.105 3.831 3.158 6.275 3.158 2.646.0 4.706-.939 6.172-2.823 1.462-1.887 2.195-4.422 2.195-7.603v-2.773H-6.102v-2.102c0-2.447.59-4.484 1.757-6.11 1.166-1.63 2.748-2.438 4.746-2.438 1.382.0 2.579.244 3.578.724 1.012.491 1.869 1.179 2.591 2.082l1.147-1.988c-.769-.968-1.755-1.75-2.962-2.33-1.203-.577-2.658-.873-4.354-.873"
         transform="matrix(1.1310535 0 0 1.1310535 669.70883 256.83868)"
         id="path15" /></g><g
       id="New_Logo-5"
       data-name="New Logo"
       transform="matrix(2.7661434,0,0,2.7661434,49.379406,65.761175)"
       style="display:inline"
       inkscape:label="Monochrome dark"><path
         class="cls-1"
         d="m 112.88,42.48 c -0.28,-1.18 -0.84,-2.26 -1.42,-3.37 l -5.03,-9.72 c -1.19,-2.31 -2.52,-4.38 -4.12,-6.39 -0.52,-0.65 -1.3,-0.97 -2.14,-0.68 -1.4,0.49 -2.81,0.89 -4.17,1.47 l -3.38,1.44 c -0.97,0.42 -1.69,0.39 -2.51,-0.38 L 86.37,21.3 C 86.05,20.11 86.48,18.97 86.6,17.79 86.81,15.81 87.19,14 87.63,12.07 87.92,10.83 88.1,9.42 87.65,8.25 87.19,7.04 85.99,6.58 84.9,6.06 78.64,3.03 74.28,0.82 67.24,0 c -0.61,-0.08 -1.87,0.52 -2.15,1.06 -0.99,1.9 -2.62,6.79 -4.12,9.82 -0.72,1.46 -1.7,-0.05 -7.74,0.66 -0.6,0.07 -1,-0.21 -1.23,-0.66 C 50.94,8.75 50.15,6.58 49.25,4.38 48.81,3.31 48.48,2.26 47.96,1.2 47.51,0.25 46.04,-0.08 45.02,0.07 42.85,0.39 40.8,0.73 38.74,1.42 34.97,2.69 31.48,4.38 27.91,6.11 c -1.05,0.5 -2.18,0.97 -2.62,2.14 -0.44,1.18 -0.26,2.56 0.03,3.8 0.44,1.92 0.82,3.74 1.02,5.71 0.13,1.21 0.53,2.31 0.26,3.54 l -4.37,4.01 c -0.72,0.67 -3.91,-0.92 -4.84,-1.35 -1.56,-0.72 -3.18,-1.18 -4.83,-1.71 -0.75,-0.23 -1.46,0.17 -1.91,0.73 -1.59,1.98 -2.9,4.01 -4.07,6.28 l -5.16,9.98 c -0.56,1.08 -1.1,2.12 -1.35,3.28 -0.29,1.35 0.32,2.12 1.48,2.66 1.75,0.81 7.28,4.63 8.26,5.71 1.21,1.32 1.86,2.72 1.9,4.69 0.07,3.89 0.36,7.59 1.04,11.15 l 16.67,1.83 c 0.98,0.12 1.72,0.87 1.83,1.82 l 0.73,6.17 12.48,0.82 1.3,-6.03 c 0.21,-0.95 1.06,-1.65 2.02,-1.65 H 65.1 c 0.97,0 1.82,0.69 2.02,1.64 l 1.3,6.03 12.5,-0.82 0.7,-6.14 c 0.11,-0.96 0.85,-1.71 1.81,-1.83 L 100.2,66.7 c 0.73,-3.73 0.93,-7.42 1.04,-11.22 0.06,-1.87 0.68,-3.27 1.9,-4.6 0.99,-1.07 6.44,-4.86 8.14,-5.65 1.22,-0.57 1.94,-1.34 1.6,-2.77 z M 43.82,54 c -3.13,6.62 -10.53,9.7 -16.52,6.86 -6,-2.83 -8.32,-10.5 -5.19,-17.12 3.13,-6.62 10.53,-9.7 16.52,-6.86 6,2.83 8.32,10.5 5.19,17.12 z M 59,58.8 c 0,1.3 -1.06,2.36 -2.36,2.36 h -0.42 c -1.3,0 -2.36,-1.06 -2.36,-2.36 v -4.82 c 0,-1.3 1.06,-2.36 2.36,-2.36 h 0.42 c 1.3,0 2.36,1.06 2.36,2.36 z m 26.66,2.06 c -6,2.83 -13.39,-0.24 -16.52,-6.86 -3.13,-6.62 -0.8,-14.29 5.19,-17.12 5.99,-2.83 13.39,0.24 16.52,6.86 3.13,6.62 0.8,14.29 -5.19,17.12 z"
         id="path1-5"
         style="display:inline;fill:#ffffff"
         inkscape:label="Head_top" /><path
         class="cls-1"
         d="M 84.31,78.15 C 84.2,79.16 83.39,79.94 82.37,80 l -14.92,0.97 c 0,0 -0.09,0 -0.14,0 -0.98,0 -1.82,-0.67 -2.03,-1.64 L 63.95,73.19 H 48.97 c 0,0 -1.33,6.13 -1.33,6.13 -0.22,1 -1.15,1.72 -2.18,1.64 L 30.54,79.99 C 29.53,79.93 28.72,79.15 28.6,78.14 L 27.91,71.93 13.6,70.35 c 0.98,3.47 2.42,6.82 4.53,10.07 3.23,3.99 7.13,7.13 11.77,9.34 6.49,3.1 13.39,4.61 20.57,5.05 10.95,0.67 22.5,-0.21 32.45,-5.01 4.61,-2.22 8.79,-5.28 11.82,-9.43 2.2,-3.03 3.61,-6.46 4.59,-10.02 l -14.35,1.58 -0.68,6.21 z"
         id="path2-4"
         style="display:inline;fill:#ffffff"
         inkscape:label="Head_bottom" /><path
         class="cls-1"
         d="m 38.74,42.02 c -3.74,-2.16 -8.71,-0.56 -11.1,3.57 -2.39,4.13 -1.29,9.24 2.46,11.4 3.74,2.16 8.71,0.56 11.1,-3.57 2.39,-4.13 1.29,-9.24 -2.46,-11.4 z"
         id="path3-0"
         style="display:inline;fill:#ffffff"
         inkscape:label="Left_eye" /><ellipse
         class="cls-1"
         cx="78.529999"
         cy="49.509998"
         rx="7.8200002"
         ry="8.6400003"
         transform="rotate(-30,78.535565,49.503542)"
         id="ellipse3"
         style="display:inline;fill:#ffffff"
         inkscape:label="Right_eye" /></g></g></svg>
