<?xml version="1.0" encoding="UTF-8" standalone="no"?>
<svg
   height="1024"
   width="1024"
   version="1.1"
   id="svg4"
   sodipodi:docname="new_icon_monochrome_light.svg"
   xml:space="preserve"
   inkscape:version="1.3 (0e150ed6c4, 2023-07-21)"
   xmlns:inkscape="http://www.inkscape.org/namespaces/inkscape"
   xmlns:sodipodi="http://sodipodi.sourceforge.net/DTD/sodipodi-0.dtd"
   xmlns="http://www.w3.org/2000/svg"
   xmlns:svg="http://www.w3.org/2000/svg"><defs
     id="defs4" /><sodipodi:namedview
     id="namedview4"
     pagecolor="#505050"
     bordercolor="#ffffff"
     borderopacity="1"
     inkscape:showpageshadow="0"
     inkscape:pageopacity="0"
     inkscape:pagecheckerboard="1"
     inkscape:deskcolor="#505050"
     inkscape:zoom="0.59454974"
     inkscape:cx="330.5022"
     inkscape:cy="564.29256"
     inkscape:window-width="1920"
     inkscape:window-height="1057"
     inkscape:window-x="1912"
     inkscape:window-y="-8"
     inkscape:window-maximized="1"
     inkscape:current-layer="Eyes_copy_4" /><g
     id="Eyes_copy_4"
     data-name="Eyes copy 4"
     transform="matrix(8.6779482,0,0,8.6779482,26.320561,105.62241)"
     inkscape:label="monochrome light"><path
       d="m 85.19,80.58 c -0.49,0.95 -1.46,1.56 -2.53,1.58 l -10.7,0.23 C 70.85,82.38 69.84,81.82 69.32,80.84 L 65.14,72.92 H 47.46 l -4.18,7.92 c -0.51,0.96 -1.49,1.55 -2.58,1.55 H 40.64 L 29.94,82.16 C 28.87,82.14 27.9,81.53 27.41,80.58 l -4.1,-7.97 -9.76,-0.4 c 4.52,13.06 16.59,20.16 30.72,22.34 18.74,2.89 43.04,-0.12 52.96,-18.52 0.67,-1.24 1.18,-2.52 1.59,-3.81 l -9.54,0.39 -4.1,7.97 z"
       id="path1-8"
       inkscape:label="head_bottom" /><path
       d="m 103.69,24.96 c -4.64,-2.9 -7.48,0.47 -11.52,1.26 -1.45,0.28 -1.49,-0.68 -2.28,-1.49 -1.43,-1.44 -2.84,-2.95 -4.42,-4.22 -0.25,-0.3 -0.27,-0.66 -0.25,-1.03 0.21,-4.37 2.26,-7.77 -0.45,-12 -2.84,-4.42 -12.53,-7.7 -17.58,-7.47 -5.32,0.25 -6.13,5.54 -7.99,9.3 -1.09,2.21 -1.58,2.42 -4.21,2.1 C 54.05,11.3 53.86,10.88 53.43,10.12 50.89,5.65 50.87,-0.18 44.01,0.02 38.65,0.18 28.8,3.55 26.72,8.97 c -1.53,4.01 0.39,7.32 0.17,11.34 -1.51,1.34 -2.94,2.77 -4.34,4.21 -0.75,0.76 -0.99,1.87 -2.28,1.69 -3.58,-0.49 -5.99,-3.5 -10.38,-1.95 -3.74,1.32 -8.54,9.57 -9.44,13.34 -1.93,8.03 2.95,7.81 7.37,12.24 4.2,4.21 3.45,10.2 4.19,15.74 0.15,1.14 0.36,2.25 0.61,3.32 l 11.04,0.45 c 1.05,0.04 1.99,0.65 2.47,1.58 l 4.09,7.97 10.29,0.22 4.18,-7.92 c 0.51,-0.96 1.49,-1.55 2.58,-1.55 h 18.08 c 1.08,0 2.07,0.59 2.58,1.55 l 4.18,7.92 10.29,-0.22 4.09,-7.97 c 0.48,-0.93 1.43,-1.54 2.47,-1.58 l 10.68,-0.44 c 0.82,-4.27 0.89,-8.71 1.65,-13.05 1.36,-7.72 10.13,-9.07 10.91,-13.7 0.8,-4.78 -4.5,-14.72 -8.51,-17.22 z m -60.34,29.7 c -3.13,6.62 -10.53,9.7 -16.52,6.86 -6,-2.83 -8.32,-10.5 -5.19,-17.12 3.13,-6.62 10.53,-9.7 16.52,-6.86 6,2.83 8.32,10.5 5.19,17.12 z m 15.04,4.92 c 0,1.24 -1,2.24 -2.24,2.24 H 56 c -1.24,0 -2.24,-1 -2.24,-2.24 v -5.06 c 0,-1.24 1,-2.24 2.24,-2.24 h 0.15 c 1.24,0 2.24,1 2.24,2.24 z m 27.01,1.94 c -6,2.83 -13.4,-0.24 -16.52,-6.86 -3.13,-6.62 -0.81,-14.29 5.19,-17.12 6,-2.83 13.39,0.24 16.52,6.86 3.13,6.62 0.8,14.29 -5.19,17.12 z"
       id="path2-9"
       inkscape:label="head_top" /><ellipse
       cx="33.959999"
       cy="50.169998"
       rx="8.6400003"
       ry="7.8200002"
       transform="rotate(-60,33.954723,50.168692)"
       id="ellipse1"
       inkscape:label="eye_L" /><ellipse
       cx="78.269997"
       cy="50.169998"
       rx="7.8200002"
       ry="8.6400003"
       transform="rotate(-30,78.275925,50.173971)"
       id="ellipse2"
       inkscape:label="eye_R" /></g></svg>
