<?xml version="1.0" encoding="UTF-8" standalone="no"?>
<svg
   height="1024"
   width="1024"
   version="1.1"
   id="svg8"
   sodipodi:docname="new_icon_color.svg"
   xml:space="preserve"
   inkscape:version="1.3 (0e150ed6c4, 2023-07-21)"
   xmlns:inkscape="http://www.inkscape.org/namespaces/inkscape"
   xmlns:sodipodi="http://sodipodi.sourceforge.net/DTD/sodipodi-0.dtd"
   xmlns="http://www.w3.org/2000/svg"
   xmlns:svg="http://www.w3.org/2000/svg"><defs
     id="defs8"><style
       id="style1">&#10;      .cls-1 {&#10;        fill: #fff;&#10;      }&#10;&#10;      .cls-2, .cls-3 {&#10;        fill: none;&#10;      }&#10;&#10;      .cls-4 {&#10;        fill: #488cbf;&#10;      }&#10;&#10;      .cls-3 {&#10;        stroke: #fff;&#10;        stroke-miterlimit: 10;&#10;        stroke-width: 3.25px;&#10;      }&#10;&#10;      .cls-5 {&#10;        fill: #424143;&#10;      }&#10;&#10;      .cls-6 {&#10;        clip-path: url(#clippath);&#10;      }&#10;    </style><clipPath
       id="clippath"><path
         class="cls-2"
         d="M85.46,20.51c1.58,1.27,2.99,2.78,4.42,4.22.79.8.84,1.77,2.28,1.49,4.05-.79,6.88-4.16,11.52-1.26,4.01,2.51,9.32,12.44,8.51,17.22s-9.55,5.99-10.91,13.7c-1.2,6.81-.68,13.87-4.06,20.15-9.92,18.39-34.22,21.41-52.96,18.52-16.35-2.52-29.97-11.63-32.28-28.95-.74-5.55,0-11.54-4.19-15.74-4.42-4.43-9.3-4.21-7.37-12.24.91-3.77,5.71-12.02,9.44-13.34,4.39-1.55,6.8,1.45,10.38,1.95,1.29.18,1.54-.93,2.28-1.69,1.41-1.44,2.84-2.88,4.34-4.21.23-4.02-1.7-7.33-.17-11.34C28.8,3.55,38.65.18,44.01.02c6.86-.21,6.88,5.63,9.42,10.1.43.75.62,1.18,1.56,1.29,2.63.31,3.12.1,4.21-2.1C61.06,5.55,61.87.26,67.19.01s14.74,3.05,17.57,7.47.66,7.63.45,12c-.02.37,0,.73.25,1.03Z"
         id="path1-4" /></clipPath></defs><sodipodi:namedview
     id="namedview8"
     pagecolor="#505050"
     bordercolor="#ffffff"
     borderopacity="1"
     inkscape:showpageshadow="0"
     inkscape:pageopacity="0"
     inkscape:pagecheckerboard="1"
     inkscape:deskcolor="#505050"
     inkscape:zoom="0.84082031"
     inkscape:cx="512"
     inkscape:cy="422.80139"
     inkscape:window-width="1920"
     inkscape:window-height="1057"
     inkscape:window-x="1912"
     inkscape:window-y="-8"
     inkscape:window-maximized="1"
     inkscape:current-layer="New_Logo_Colored_" /><g
     id="New_Logo_Colored_"
     data-name="New Logo (Colored)"
     transform="matrix(8.8565847,0,0,8.8565847,15.298227,92.042103)"
     style="display:inline"><g
       id="Head"><path
         class="cls-4"
         d="m 89.29,72.61 -4.1,7.97 c -0.49,0.95 -1.46,1.56 -2.53,1.58 l -10.7,0.23 C 70.85,82.38 69.84,81.82 69.32,80.84 L 65.14,72.92 H 47.46 l -4.18,7.92 c -0.51,0.96 -1.49,1.55 -2.58,1.55 H 40.64 L 29.94,82.16 C 28.87,82.14 27.9,81.53 27.41,80.58 l -4.1,-7.97 -9.76,-0.4 c 4.52,13.06 16.59,20.16 30.72,22.34 18.74,2.89 43.04,-0.12 52.96,-18.52 0.67,-1.24 1.18,-2.52 1.59,-3.81 l -9.54,0.39 z"
         id="path2-7"
         inkscape:label="head_bottom" /><path
         class="cls-4"
         d="m 103.69,24.96 c -4.64,-2.9 -7.48,0.47 -11.52,1.26 -1.45,0.28 -1.49,-0.68 -2.28,-1.49 -1.43,-1.44 -2.84,-2.95 -4.42,-4.22 -0.25,-0.3 -0.27,-0.66 -0.25,-1.03 0.21,-4.37 2.26,-7.77 -0.45,-12 -2.84,-4.42 -12.53,-7.7 -17.58,-7.47 -5.32,0.25 -6.13,5.54 -7.99,9.3 -1.09,2.21 -1.58,2.42 -4.21,2.1 C 54.05,11.3 53.86,10.88 53.43,10.12 50.89,5.65 50.87,-0.18 44.01,0.02 38.65,0.18 28.8,3.55 26.72,8.97 c -1.53,4.01 0.39,7.32 0.17,11.34 -1.51,1.34 -2.94,2.77 -4.34,4.21 -0.75,0.76 -0.99,1.87 -2.28,1.69 -3.58,-0.49 -5.99,-3.5 -10.38,-1.95 -3.74,1.32 -8.54,9.57 -9.44,13.34 -1.93,8.03 2.95,7.81 7.37,12.24 4.2,4.21 3.45,10.2 4.19,15.74 0.15,1.14 0.36,2.25 0.61,3.32 l 11.04,0.45 c 1.05,0.04 1.99,0.65 2.47,1.58 l 4.09,7.97 10.29,0.22 4.18,-7.92 c 0.51,-0.96 1.49,-1.55 2.58,-1.55 h 18.08 c 1.08,0 2.07,0.59 2.58,1.55 l 4.18,7.92 10.29,-0.22 4.09,-7.97 c 0.48,-0.93 1.43,-1.54 2.47,-1.58 l 10.68,-0.44 c 0.82,-4.27 0.89,-8.71 1.65,-13.05 1.36,-7.72 10.13,-9.07 10.91,-13.7 0.8,-4.78 -4.5,-14.72 -8.51,-17.22 z"
         id="path3-5"
         inkscape:label="head_top" /></g><g
       id="Mouth"><g
         id="Mouth_Masked"
         data-name="Mouth Masked"><g
           class="cls-6"
           clip-path="url(#clippath)"
           id="g4"><path
             class="cls-3"
             d="M 101.07,70.5 89.03,71 c -0.46,0.02 -0.88,0.29 -1.09,0.7 l -4.18,8.14 c -0.22,0.42 -0.65,0.69 -1.12,0.7 l -10.7,0.23 C 71.45,80.78 71,80.51 70.77,80.08 l -4.28,-8.1 C 66.27,71.56 65.83,71.29 65.35,71.29 H 47.27 c -0.48,0 -0.92,0.26 -1.14,0.69 l -4.28,8.1 c -0.23,0.43 -0.68,0.7 -1.17,0.69 l -10.7,-0.23 c -0.47,-0.01 -0.9,-0.28 -1.12,-0.7 L 24.68,71.7 C 24.47,71.29 24.05,71.02 23.59,71 L 11.55,70.5"
             id="path4-2"
             style="display:inline"
             inkscape:label="mouth" /></g></g></g><g
       id="Nose"><rect
         class="cls-1"
         x="53.759998"
         y="52.290001"
         width="4.6300001"
         height="9.54"
         rx="2.24"
         ry="2.24"
         id="rect4"
         inkscape:label="nose" /></g><g
       id="Eyes"><ellipse
         class="cls-1"
         cx="32.490002"
         cy="49.529999"
         rx="13.26"
         ry="12.01"
         transform="rotate(-64.72,32.4929,49.530513)"
         id="ellipse4"
         style="display:inline"
         inkscape:label="eyball_L" /><ellipse
         class="cls-5"
         cx="33.959999"
         cy="50.169998"
         rx="8.6400003"
         ry="7.8200002"
         transform="rotate(-60,33.954724,50.168693)"
         id="ellipse5"
         style="display:inline"
         inkscape:label="pupil_L" /><ellipse
         class="cls-1"
         cx="79.730003"
         cy="49.529999"
         rx="12.01"
         ry="13.26"
         transform="rotate(-25.28,79.746884,49.543636)"
         id="ellipse6"
         style="display:inline"
         inkscape:label="eyeball_R" /><ellipse
         class="cls-5"
         cx="78.269997"
         cy="50.169998"
         rx="7.8200002"
         ry="8.6400003"
         transform="rotate(-30,78.275926,50.173972)"
         id="ellipse7"
         style="display:inline"
         inkscape:label="pupil_R" /></g></g></svg>
