<?xml version="1.0" encoding="UTF-8" standalone="no"?>
<svg
   height="333.05"
   viewBox="0 0 884.99998 312.23336"
   width="944"
   version="1.1"
   id="svg3"
   sodipodi:docname="new_logo_small_monochrome_dark.svg"
   inkscape:version="1.3 (0e150ed6c4, 2023-07-21)"
   xmlns:inkscape="http://www.inkscape.org/namespaces/inkscape"
   xmlns:sodipodi="http://sodipodi.sourceforge.net/DTD/sodipodi-0.dtd"
   xmlns="http://www.w3.org/2000/svg"
   xmlns:svg="http://www.w3.org/2000/svg">
  <defs
     id="defs3">
    <clipPath
       id="clippath">
      <path
         class="cls-2"
         d="m 85.46,20.51 c 1.58,1.27 2.99,2.78 4.42,4.22 0.79,0.8 0.84,1.77 2.28,1.49 4.05,-0.79 6.88,-4.16 11.52,-1.26 4.01,2.51 9.32,12.44 8.51,17.22 -0.81,4.78 -9.55,5.99 -10.91,13.7 -1.2,6.81 -0.68,13.87 -4.06,20.15 C 87.3,94.42 63,97.44 44.26,94.55 27.91,92.03 14.29,82.92 11.98,65.6 11.24,60.05 11.98,54.06 7.79,49.86 3.37,45.43 -1.51,45.65 0.42,37.62 1.33,33.85 6.13,25.6 9.86,24.28 c 4.39,-1.55 6.8,1.45 10.38,1.95 1.29,0.18 1.54,-0.93 2.28,-1.69 1.41,-1.44 2.84,-2.88 4.34,-4.21 C 27.09,16.31 25.16,13 26.69,8.99 28.8,3.55 38.65,0.18 44.01,0.02 c 6.86,-0.21 6.88,5.63 9.42,10.1 0.43,0.75 0.62,1.18 1.56,1.29 2.63,0.31 3.12,0.1 4.21,-2.1 1.86,-3.76 2.67,-9.05 7.99,-9.3 5.32,-0.25 14.74,3.05 17.57,7.47 2.83,4.42 0.66,7.63 0.45,12 -0.02,0.37 0,0.73 0.25,1.03 z"
         id="path1-4" />
    </clipPath>
    <clipPath
       id="clippath-0-8">
      <path
         class="cls-3"
         d="m 119.71,62.55 c -1.7,0.79 -7.15,4.58 -8.14,5.65 -1.22,1.33 -1.84,2.73 -1.9,4.6 -0.12,4.21 -0.35,8.28 -1.29,12.43 -1,4.42 -2.51,8.74 -5.21,12.45 -3.03,4.15 -7.21,7.21 -11.82,9.43 -9.95,4.8 -21.5,5.68 -32.45,5.01 -7.18,-0.44 -14.08,-1.95 -20.57,-5.05 -4.64,-2.21 -8.54,-5.35 -11.77,-9.34 C 21.63,90.11 20.31,82.02 20.14,72.89 20.1,70.92 19.45,69.52 18.24,68.2 17.26,67.12 11.73,63.3 9.98,62.49 8.82,61.95 8.21,61.18 8.5,59.83 8.75,58.67 9.29,57.63 9.85,56.55 l 5.16,-9.98 c 1.17,-2.27 2.48,-4.3 4.07,-6.28 0.45,-0.56 1.16,-0.96 1.91,-0.73 1.65,0.53 3.27,0.99 4.83,1.71 0.93,0.43 4.12,2.02 4.84,1.35 l 4.37,-4.01 c 0.27,-1.23 -0.13,-2.33 -0.26,-3.54 -0.2,-1.97 -0.58,-3.79 -1.02,-5.71 -0.29,-1.24 -0.47,-2.62 -0.03,-3.8 0.44,-1.17 1.57,-1.64 2.62,-2.14 3.57,-1.73 7.06,-3.42 10.83,-4.69 2.06,-0.69 4.11,-1.03 6.28,-1.35 1.02,-0.15 2.49,0.18 2.94,1.13 0.52,1.06 0.85,2.11 1.29,3.18 0.9,2.2 1.69,4.37 2.75,6.5 0.23,0.45 0.63,0.73 1.23,0.66 6.04,-0.71 7.02,0.8 7.74,-0.66 1.5,-3.03 3.13,-7.92 4.12,-9.82 0.28,-0.54 1.54,-1.14 2.15,-1.06 7.04,0.81 11.4,3.02 17.66,6.05 1.09,0.52 2.29,0.98 2.75,2.19 0.45,1.17 0.27,2.58 -0.02,3.82 -0.44,1.93 -0.82,3.74 -1.03,5.72 -0.12,1.18 -0.55,2.32 -0.23,3.51 l 3.74,3.55 c 0.82,0.77 1.54,0.8 2.51,0.38 l 3.38,-1.44 c 1.36,-0.58 2.77,-0.98 4.17,-1.47 0.84,-0.29 1.62,0.03 2.14,0.68 1.6,2.01 2.93,4.08 4.12,6.39 l 5.03,9.72 c 0.58,1.11 1.14,2.19 1.42,3.37 0.34,1.43 -0.38,2.2 -1.6,2.77 z"
         id="path1-7" />
    </clipPath>
  </defs>
  <sodipodi:namedview
     id="namedview3"
     pagecolor="#505050"
     bordercolor="#ffffff"
     borderopacity="1"
     inkscape:showpageshadow="0"
     inkscape:pageopacity="0"
     inkscape:pagecheckerboard="1"
     inkscape:deskcolor="#505050"
     inkscape:zoom="1.7153331"
     inkscape:cx="188.01013"
     inkscape:cy="136.70814"
     inkscape:window-width="1920"
     inkscape:window-height="1057"
     inkscape:window-x="-8"
     inkscape:window-y="-8"
     inkscape:window-maximized="1"
     inkscape:current-layer="svg3" />
  <path
     d="m435.0375 98.735c-16.39125.0-29.20875 5.16075-38.465 15.48125-9.26338 10.32513-13.88625 23.72625-13.88625 40.225.0 19.37125 4.73213 34.05625 14.19625 44.05875 9.481 10.00138 21.92875 14.99625 37.36125 14.99625 8.29913.0 15.665-.71548 22.10125-2.15337 6.44275-1.43225 10.72525-2.90175 12.85625-4.389l.63904-49.94875c0-2.9025-7.66113-4.22188-16.25375-4.36888-8.59313-.1329-18.4275 1.659-18.4275 1.659v16.7725h9.8895l-.10988 7.47625c0 2.76963-2.74575 4.16013-8.2215 4.16013-5.48275.0-10.32525-2.32038-14.52625-6.95063-4.21037-4.63587-6.30437-11.41337-6.30437-20.3425.0-8.948 2.046-15.54375 6.14325-19.80125 4.08875-4.25275 9.44925-6.38675 16.04125-6.38675 2.76962.0 5.637.44673 8.61875 1.35863 2.98312.90341 4.97462 1.75012 5.99125 2.54337 1.00805.81578 1.96662 1.203 2.87287 1.203.90202.0 2.36325-1.05624 4.3835-3.18975 2.02325-2.12775 3.8355-5.35212 5.43463-9.6515 1.592-4.322 2.3895-7.635 2.3895-9.98475.0-2.33137-.0524-3.93812-.15564-4.78637-2.23525-2.44588-6.36075-4.38613-12.37787-5.82825-6.00588-1.43788-12.74-2.151505-20.18875-2.151505zm97.93.0c-15.05875.0-27.3525 4.84225-36.875 14.51875-9.52062 9.68888-14.28 23.9175-14.28 42.70875.0 18.78125 4.70663 33.0675 14.115 42.8575 9.42162 9.78225 21.61 14.67375 36.55875 14.67375 14.955.0 27.15875-4.70263 36.63375-14.11 9.47537-9.42738 14.20875-23.79375 14.20875-43.10875.0-19.3-4.6265-33.73-13.89375-43.25-9.25062-9.53763-21.41125-14.29125-36.4675-14.29125zm211.7.0c-15.06375.0-27.35 4.84225-36.88125 14.51875-9.51925 9.68888-14.27875 23.9175-14.27875 42.70875.0 18.78125 4.70812 33.0675 14.12875 42.8575 9.41325 9.78225 21.59375 14.67375 36.5475 14.67375 14.94875.0 27.1625-4.70263 36.63375-14.11 9.474-9.42738 14.20875-23.79375 14.20875-43.10875.0-19.3-4.62625-33.73-13.88625-43.25-9.26187-9.53763-21.41375-14.29125-36.4725-14.29125zm-140.0625 1.42825c-2.13487.0-3.86162.77861-5.18925 2.31263-1.336 1.558-1.99775 3.65862-1.99775 6.32075v95.76375c0 4.89887 2.71925 7.34074 8.14275 7.34074h27.28875c33.415.0 50.12875-19.57625 50.12875-58.73875.0-18.30624-4.393-31.70749-13.18-40.21875-8.77137-8.514-21.62-12.78125-38.53625-12.78125zm199.15.0c-1.81112.0-3.08825 2.45888-3.8305 7.3535-.31951 2.33987-.47241 4.74037-.47241 7.17775.0 2.4515.1529 4.84213.47241 7.17775.74226 4.90738 2.0195 7.34988 3.8305 7.34988h19.15125v80.13625c0 2.11512 5.2755 3.18787 15.80625 3.18787 10.54.0 15.8025-1.0728 15.8025-3.18787v-80.13625h18.67625c1.80825.0 3.08063-2.4425 3.83425-7.34988.31245-2.33562.47424-4.72612.47424-7.17775.0-2.43738-.16179-4.83787-.47424-7.17775-.75356-4.89463-2.026-7.3535-3.83425-7.3535zm-271.2 29.22c5.11237.0 9.39637 2.286 12.85 6.8555 3.45825 4.57512 5.19287 11.12687 5.19287 19.6375.0 8.51825-1.67962 15.06125-5.03175 19.6325-3.35212 4.58787-7.71775 6.87375-13.08999 6.87375-5.37538.0-9.7075-2.25913-13.00626-6.79325-3.30412-4.52-4.95299-11.00575-4.95299-19.47875.0-8.45463 1.73437-15.025 5.1855-19.70625 3.4695-4.67687 7.74687-7.02213 12.8525-7.02213zm211.7.0c5.11238.0 9.39075 2.286 12.85 6.8555 3.45825 4.57512 5.18925 11.12687 5.18925 19.6375.0 8.51825-1.67813 15.06125-5.03175 19.6325-3.34788 4.58787-7.71625 6.87375-13.09 6.87375-5.37538.0-9.71175-2.25913-13.00625-6.79325-3.29425-4.52-4.9475-11.00575-4.9475-19.47875.0-8.45463 1.72663-15.025 5.17637-19.70625 3.46388-4.67687 7.75275-7.02213 12.86001-7.02213zm-116.19875 1.10596h1.59662c6.81038.0 11.7875 1.55725 14.93 4.6435 3.12738 3.07788 4.70026 9.70425 4.70026 19.8725 1e-5 10.16388-1.50351 17.42-4.54463 21.77875-3.034 4.363-7.47125 6.5515-13.33 6.5515-1.592.0-2.5525-.294-2.86925-.88073-.31951-.58957-.48339-1.99463-.48339-4.22425z"
     fill="#fefefe"
     stroke-width="1.25"
     id="path1" />
  <g
     fill="#ffffff"
     id="g3"
     style="display:none">
    <path
       d="m 141.91016,7.9980469 c -15.358,3.4143001 -30.55093,8.1665381 -44.794926,15.3359371 0.325751,12.577 1.138809,24.628141 2.78711,36.869141 -5.5316,3.544 -11.344719,6.586075 -16.511719,10.734375 -5.2496,4.038601 -10.612234,7.903653 -15.365234,12.626953 C 58.529091,77.283353 48.479,71.378969 38.125,66.167969 26.964,78.179969 16.526953,91.145343 8.0019531,105.65234 c 6.4137999,10.376 13.1098439,20.10108 20.3398439,29.33008 h 0.201172 v 89.03906 c 0.162869,0.001 0.326921,0.009 0.488281,0.0234 l 54.585938,5.26172 c 2.8593,0.27598 5.099828,2.57796 5.298828,5.44336 l 1.683593,24.0957 47.615231,3.39844 3.2793,-22.24023 c 0.42526,-2.88341 2.89981,-5.01953 5.81641,-5.01953 h 57.58984 c 2.9151,0 5.38925,2.13612 5.81445,5.01953 l 3.2793,22.24023 47.61719,-3.39844 1.68164,-24.0957 c 0.20057,-2.8653 2.43952,-5.16586 5.29883,-5.44336 l 54.56445,-5.26172 c 0.16135,-0.0151 0.32347,-0.0218 0.48633,-0.0234 v -7.10546 l 0.0234,-0.008 v -81.92578 h 0.20117 c 7.2312,-9.2294 13.92285,-18.95507 20.33984,-29.33008 -8.52209,-14.507997 -18.96401,-27.473372 -30.125,-39.484371 -10.35101,5.2104 -20.40634,11.114484 -29.90234,17.396484 -4.7519,-4.7233 -10.10434,-8.588253 -15.36133,-12.626953 -5.16521,-4.148701 -10.98681,-7.190775 -16.50781,-10.734375 1.6438,-12.241001 2.45786,-24.29214 2.78515,-36.869141 C 240.85074,16.164051 225.65896,11.412047 210.29297,7.9980469 204.15816,18.309047 198.54811,29.472672 193.66211,40.388672 c -5.794,-0.96819 -11.61536,-1.327085 -17.44336,-1.396484 v -0.0078 c -0.0408,0 -0.0786,0.0078 -0.11328,0.0078 -0.036,0 -0.0751,-0.0078 -0.11133,-0.0078 v 0.0078 c -5.8393,0.06933 -11.65617,0.428283 -17.45117,1.396484 C 153.65986,29.473671 148.05416,18.309047 141.91016,7.9980469 Z M 98.722656,138.24805 c 18.169004,0 32.896484,14.71589 32.896484,32.8789 0,18.175 -14.72748,32.89844 -32.896484,32.89844 -18.161,0 -32.890625,-14.72344 -32.890625,-32.89844 0,-18.16299 14.730624,-32.8789 32.890625,-32.8789 z m 154.759764,0 c 18.159,0 32.88672,14.71589 32.88672,32.8789 0,18.175 -14.72772,32.89844 -32.88672,32.89844 -18.172,0 -32.89648,-14.72344 -32.89648,-32.89844 0,-18.16299 14.72448,-32.8789 32.89648,-32.8789 z m -77.38672,19.24023 c 5.84871,0 10.59961,4.31464 10.59961,9.62305 v 30.2832 c 0,5.3129 -4.75121,9.62305 -10.59961,9.62305 -5.8484,0 -10.58789,-4.31015 -10.58789,-9.62305 v -30.2832 c 0,-5.30841 4.73959,-9.62305 10.58789,-9.62305 z M 28.449219,235.79883 c 0.02267,5.2752 0.08984,11.05213 0.08984,12.20312 0,51.838 65.760941,76.75401 147.460938,77.04102 h 0.20117 c 81.70101,-0.28655 147.43945,-25.20302 147.43945,-77.04102 0,-1.17179 0.0716,-6.92492 0.0957,-12.20312 l -49.06445,4.73242 -1.69141,24.22461 c -0.2036,2.9196 -2.52572,5.24352 -5.44531,5.45312 l -58.14454,4.14844 c -0.14176,0.0107 -0.28358,0.0156 -0.42382,0.0156 -2.88951,0 -5.3818,-2.12195 -5.8086,-5.02344 l -3.33398,-22.61133 h -47.44336 l -3.33398,22.61133 c -0.44791,3.0433 -3.16802,5.23252 -6.23243,5.00781 l -58.144528,-4.14844 c -2.9196,-0.20961 -5.241713,-2.53352 -5.445313,-5.45312 l -1.689453,-24.22461 -49.083984,-4.73242 z"
       transform="matrix(0.93749998,0,0,0.93749998,0,-4.98e-4)"
       id="path2" />
    <path
       d="m 95.503125,141.79437 c -11.305312,0 -20.469375,9.16913 -20.469375,20.47125 0,11.30213 9.164438,20.46188 20.469375,20.46188 11.310935,0 20.471255,-9.15994 20.471255,-20.46188 0,-11.30193 -9.16069,-20.47125 -20.471255,-20.47125 z m 139.181255,0 c -11.30251,0 -20.46001,9.16913 -20.46001,20.47125 0,11.30213 9.15816,20.46188 20.46001,20.46188 11.31375,0 20.46937,-9.15994 20.46937,-20.46188 0,-11.30193 -9.156,-20.47125 -20.46937,-20.47125 z"
       stroke-width="0.9375"
       id="path3" />
  </g>
  <g
     id="New_Logo-5"
     data-name="New Logo"
     transform="matrix(2.5340616,0,0,2.5340616,28.763112,36.578952)"
     style="display:inline"
     inkscape:label="Monochrome dark">
    <path
       class="cls-1"
       d="m 112.88,42.48 c -0.28,-1.18 -0.84,-2.26 -1.42,-3.37 l -5.03,-9.72 c -1.19,-2.31 -2.52,-4.38 -4.12,-6.39 -0.52,-0.65 -1.3,-0.97 -2.14,-0.68 -1.4,0.49 -2.81,0.89 -4.17,1.47 l -3.38,1.44 c -0.97,0.42 -1.69,0.39 -2.51,-0.38 L 86.37,21.3 C 86.05,20.11 86.48,18.97 86.6,17.79 86.81,15.81 87.19,14 87.63,12.07 87.92,10.83 88.1,9.42 87.65,8.25 87.19,7.04 85.99,6.58 84.9,6.06 78.64,3.03 74.28,0.82 67.24,0 c -0.61,-0.08 -1.87,0.52 -2.15,1.06 -0.99,1.9 -2.62,6.79 -4.12,9.82 -0.72,1.46 -1.7,-0.05 -7.74,0.66 -0.6,0.07 -1,-0.21 -1.23,-0.66 C 50.94,8.75 50.15,6.58 49.25,4.38 48.81,3.31 48.48,2.26 47.96,1.2 47.51,0.25 46.04,-0.08 45.02,0.07 42.85,0.39 40.8,0.73 38.74,1.42 34.97,2.69 31.48,4.38 27.91,6.11 c -1.05,0.5 -2.18,0.97 -2.62,2.14 -0.44,1.18 -0.26,2.56 0.03,3.8 0.44,1.92 0.82,3.74 1.02,5.71 0.13,1.21 0.53,2.31 0.26,3.54 l -4.37,4.01 c -0.72,0.67 -3.91,-0.92 -4.84,-1.35 -1.56,-0.72 -3.18,-1.18 -4.83,-1.71 -0.75,-0.23 -1.46,0.17 -1.91,0.73 -1.59,1.98 -2.9,4.01 -4.07,6.28 l -5.16,9.98 c -0.56,1.08 -1.1,2.12 -1.35,3.28 -0.29,1.35 0.32,2.12 1.48,2.66 1.75,0.81 7.28,4.63 8.26,5.71 1.21,1.32 1.86,2.72 1.9,4.69 0.07,3.89 0.36,7.59 1.04,11.15 l 16.67,1.83 c 0.98,0.12 1.72,0.87 1.83,1.82 l 0.73,6.17 12.48,0.82 1.3,-6.03 c 0.21,-0.95 1.06,-1.65 2.02,-1.65 H 65.1 c 0.97,0 1.82,0.69 2.02,1.64 l 1.3,6.03 12.5,-0.82 0.7,-6.14 c 0.11,-0.96 0.85,-1.71 1.81,-1.83 L 100.2,66.7 c 0.73,-3.73 0.93,-7.42 1.04,-11.22 0.06,-1.87 0.68,-3.27 1.9,-4.6 0.99,-1.07 6.44,-4.86 8.14,-5.65 1.22,-0.57 1.94,-1.34 1.6,-2.77 z M 43.82,54 c -3.13,6.62 -10.53,9.7 -16.52,6.86 -6,-2.83 -8.32,-10.5 -5.19,-17.12 3.13,-6.62 10.53,-9.7 16.52,-6.86 6,2.83 8.32,10.5 5.19,17.12 z M 59,58.8 c 0,1.3 -1.06,2.36 -2.36,2.36 h -0.42 c -1.3,0 -2.36,-1.06 -2.36,-2.36 v -4.82 c 0,-1.3 1.06,-2.36 2.36,-2.36 h 0.42 c 1.3,0 2.36,1.06 2.36,2.36 z m 26.66,2.06 c -6,2.83 -13.39,-0.24 -16.52,-6.86 -3.13,-6.62 -0.8,-14.29 5.19,-17.12 5.99,-2.83 13.39,0.24 16.52,6.86 3.13,6.62 0.8,14.29 -5.19,17.12 z"
       id="path1-5"
       style="display:inline;fill:#ffffff"
       inkscape:label="Head_top" />
    <path
       class="cls-1"
       d="M 84.31,78.15 C 84.2,79.16 83.39,79.94 82.37,80 l -14.92,0.97 c 0,0 -0.09,0 -0.14,0 -0.98,0 -1.82,-0.67 -2.03,-1.64 L 63.95,73.19 H 48.97 c 0,0 -1.33,6.13 -1.33,6.13 -0.22,1 -1.15,1.72 -2.18,1.64 L 30.54,79.99 C 29.53,79.93 28.72,79.15 28.6,78.14 L 27.91,71.93 13.6,70.35 c 0.98,3.47 2.42,6.82 4.53,10.07 3.23,3.99 7.13,7.13 11.77,9.34 6.49,3.1 13.39,4.61 20.57,5.05 10.95,0.67 22.5,-0.21 32.45,-5.01 4.61,-2.22 8.79,-5.28 11.82,-9.43 2.2,-3.03 3.61,-6.46 4.59,-10.02 l -14.35,1.58 -0.68,6.21 z"
       id="path2-4"
       style="display:inline;fill:#ffffff"
       inkscape:label="Head_bottom" />
    <path
       class="cls-1"
       d="m 38.74,42.02 c -3.74,-2.16 -8.71,-0.56 -11.1,3.57 -2.39,4.13 -1.29,9.24 2.46,11.4 3.74,2.16 8.71,0.56 11.1,-3.57 2.39,-4.13 1.29,-9.24 -2.46,-11.4 z"
       id="path3-0"
       style="display:inline;fill:#ffffff"
       inkscape:label="Left_eye" />
    <ellipse
       class="cls-1"
       cx="78.529999"
       cy="49.509998"
       rx="7.8200002"
       ry="8.6400003"
       transform="rotate(-30,78.535565,49.503542)"
       id="ellipse3"
       style="display:inline;fill:#ffffff"
       inkscape:label="Right_eye" />
  </g>
</svg>
