<?xml version="1.0" encoding="UTF-8" standalone="no"?>
<svg
   height="333.05"
   viewBox="0 0 884.99998 312.23336"
   width="944"
   version="1.1"
   id="svg6"
   sodipodi:docname="new_logo_small_color_light.svg"
   inkscape:version="1.3 (0e150ed6c4, 2023-07-21)"
   xmlns:inkscape="http://www.inkscape.org/namespaces/inkscape"
   xmlns:sodipodi="http://sodipodi.sourceforge.net/DTD/sodipodi-0.dtd"
   xmlns="http://www.w3.org/2000/svg"
   xmlns:svg="http://www.w3.org/2000/svg">
  <defs
     id="defs6">
    <clipPath
       id="clippath">
      <path
         class="cls-2"
         d="m 85.46,20.51 c 1.58,1.27 2.99,2.78 4.42,4.22 0.79,0.8 0.84,1.77 2.28,1.49 4.05,-0.79 6.88,-4.16 11.52,-1.26 4.01,2.51 9.32,12.44 8.51,17.22 -0.81,4.78 -9.55,5.99 -10.91,13.7 -1.2,6.81 -0.68,13.87 -4.06,20.15 C 87.3,94.42 63,97.44 44.26,94.55 27.91,92.03 14.29,82.92 11.98,65.6 11.24,60.05 11.98,54.06 7.79,49.86 3.37,45.43 -1.51,45.65 0.42,37.62 1.33,33.85 6.13,25.6 9.86,24.28 c 4.39,-1.55 6.8,1.45 10.38,1.95 1.29,0.18 1.54,-0.93 2.28,-1.69 1.41,-1.44 2.84,-2.88 4.34,-4.21 C 27.09,16.31 25.16,13 26.69,8.99 28.8,3.55 38.65,0.18 44.01,0.02 c 6.86,-0.21 6.88,5.63 9.42,10.1 0.43,0.75 0.62,1.18 1.56,1.29 2.63,0.31 3.12,0.1 4.21,-2.1 1.86,-3.76 2.67,-9.05 7.99,-9.3 5.32,-0.25 14.74,3.05 17.57,7.47 2.83,4.42 0.66,7.63 0.45,12 -0.02,0.37 0,0.73 0.25,1.03 z"
         id="path1-4" />
    </clipPath>
  </defs>
  <sodipodi:namedview
     id="namedview6"
     pagecolor="#505050"
     bordercolor="#ffffff"
     borderopacity="1"
     inkscape:showpageshadow="0"
     inkscape:pageopacity="0"
     inkscape:pagecheckerboard="1"
     inkscape:deskcolor="#505050"
     inkscape:zoom="1.2129237"
     inkscape:cx="472"
     inkscape:cy="166.12751"
     inkscape:window-width="1920"
     inkscape:window-height="1057"
     inkscape:window-x="1912"
     inkscape:window-y="-8"
     inkscape:window-maximized="1"
     inkscape:current-layer="svg6" />
  <clipPath
     id="a">
    <path
       d="m0 595.276h841.89V0H0z"
       id="path1" />
  </clipPath>
  <path
     d="m453.43 368.3c-13.113.0-23.367-4.1286-30.772-12.385-7.4107-8.2601-11.109-18.981-11.109-32.18.0-15.497 3.7857-27.245 11.357-35.247 7.5848-8.0011 17.543-11.997 29.889-11.997 6.6393.0 12.532.57238 17.681 1.7227 5.1542 1.1458 8.5802 2.3214 10.285 3.5112l.51123 39.959c0 2.322-6.1289 3.3775-13.003 3.4951-6.8745.10632-14.742-1.3272-14.742-1.3272v-13.418h7.9116l-.0879-5.981c0-2.2157-2.1966-3.3281-6.5772-3.3281-4.3862.0-8.2602 1.8563-11.621 5.5605-3.3683 3.7087-5.0435 9.1307-5.0435 16.274.0 7.1584 1.6368 12.435 4.9146 15.841 3.271 3.4022 7.5594 5.1094 12.833 5.1094 2.2157.0 4.5096-.35738 6.895-1.0869 2.3865-.72273 3.9797-1.4001 4.793-2.0347.80644-.65262 1.5733-.9624 2.2983-.9624.72161.0 1.8906.84499 3.5068 2.5518 1.6186 1.7022 3.0684 4.2817 4.3477 7.7212 1.2736 3.4576 1.9116 6.108 1.9116 7.9878.0 1.8651-.0419 3.1505-.12451 3.8291-1.7882 1.9567-5.0886 3.5089-9.9023 4.6626-4.8047 1.1503-10.192 1.7212-16.151 1.7212zm78.344.0c-12.047.0-21.882-3.8738-29.5-11.615-7.6165-7.7511-11.424-19.134-11.424-34.167.0-15.025 3.7653-26.454 11.292-34.286 7.5373-7.8258 17.288-11.739 29.247-11.739 11.964.0 21.727 3.7621 29.307 11.288 7.5803 7.5419 11.367 19.035 11.367 34.487.0 15.44-3.7012 26.984-11.115 34.6-7.4005 7.6301-17.129 11.433-29.174 11.433zm169.36.0c-12.051.0-21.88-3.8738-29.505-11.615-7.6154-7.7511-11.423-19.134-11.423-34.167.0-15.025 3.7665-26.454 11.303-34.286 7.5306-7.8258 17.275-11.739 29.238-11.739 11.959.0 21.73 3.7621 29.307 11.288 7.5792 7.5419 11.367 19.035 11.367 34.487.0 15.44-3.701 26.984-11.109 34.6-7.4095 7.6301-17.131 11.433-29.178 11.433zm-112.05-1.1426c-1.7079.0-3.0893-.62289-4.1514-1.8501-1.0688-1.2464-1.5982-2.9269-1.5982-5.0566v-76.611c0-3.9191 2.1754-5.8726 6.5142-5.8726h21.831c26.732.0 40.103 15.661 40.103 46.991.0 14.645-3.5144 25.366-10.544 32.175-7.0171 6.8112-17.296 10.225-30.829 10.225zm159.32.0c-1.4489.0-2.4706-1.9671-3.0644-5.8828-.25561-1.8719-.37793-3.7923-.37793-5.7422.0-1.9612.12232-3.8737.37793-5.7422.59381-3.9259 1.6156-5.8799 3.0644-5.8799h15.321v-64.109c0-1.6921 4.2204-2.5503 12.645-2.5503 8.432.0 12.642.85824 12.642 2.5503v64.109h14.941c1.4466.0 2.4645 1.954 3.0674 5.8799.24996 1.8685.37939 3.7809.37939 5.7422.0 1.9499-.12943 3.8703-.37939 5.7422-.60285 3.9157-1.6208 5.8828-3.0674 5.8828zm-216.96-23.376c4.0899.0 7.5171-1.8288 10.28-5.4844 2.7666-3.6601 4.1543-8.9015 4.1543-15.71.0-6.8146-1.3437-12.049-4.0254-15.706-2.6817-3.6703-6.1742-5.499-10.472-5.499-4.3003.0-7.766 1.8073-10.405 5.4346-2.6433 3.616-3.9624 8.8046-3.9624 15.583.0 6.7637 1.3875 12.02 4.1484 15.765 2.7756 3.7415 6.1975 5.6177 10.282 5.6177zm169.36.0c4.0899.0 7.5126-1.8288 10.28-5.4844 2.7666-3.6601 4.1514-8.9015 4.1514-15.71.0-6.8146-1.3425-12.049-4.0254-15.706-2.6783-3.6703-6.173-5.499-10.472-5.499-4.3003.0-7.7694 1.8073-10.405 5.4346-2.6354 3.616-3.958 8.8046-3.958 15.583.0 6.7637 1.3813 12.02 4.1411 15.765 2.7711 3.7415 6.2022 5.6177 10.288 5.6177zm-92.959-.88477h1.2773c5.4483.0 9.43-1.2458 11.944-3.7148 2.5019-2.4623 3.7602-7.7634 3.7602-15.898 1e-5-8.1311-1.2028-13.936-3.6357-17.423-2.4272-3.4904-5.977-5.2412-10.664-5.2412-1.2736.0-2.042.2352-2.2954.70459-.25561.47165-.38671 1.5957-.38671 3.3794z"
     fill="#414042"
     id="path2"
     inkscape:label="Godot"
     transform="matrix(1.25,0,0,-1.25,-131.75,559.11)" />
  <g
     id="New_Logo_Colored_"
     data-name="New Logo (Colored)"
     transform="matrix(2.6732648,0,0,2.6732648,20.386105,29.540184)"
     style="display:inline">
    <g
       id="Head">
      <path
         class="cls-4"
         d="m 89.29,72.61 -4.1,7.97 c -0.49,0.95 -1.46,1.56 -2.53,1.58 l -10.7,0.23 C 70.85,82.38 69.84,81.82 69.32,80.84 L 65.14,72.92 H 47.46 l -4.18,7.92 c -0.51,0.96 -1.49,1.55 -2.58,1.55 H 40.64 L 29.94,82.16 C 28.87,82.14 27.9,81.53 27.41,80.58 l -4.1,-7.97 -9.76,-0.4 c 4.52,13.06 16.59,20.16 30.72,22.34 18.74,2.89 43.04,-0.12 52.96,-18.52 0.67,-1.24 1.18,-2.52 1.59,-3.81 l -9.54,0.39 z"
         id="path2-7"
         inkscape:label="head_bottom"
         style="fill:#488cbf" />
      <path
         class="cls-4"
         d="m 103.69,24.96 c -4.64,-2.9 -7.48,0.47 -11.52,1.26 -1.45,0.28 -1.49,-0.68 -2.28,-1.49 -1.43,-1.44 -2.84,-2.95 -4.42,-4.22 -0.25,-0.3 -0.27,-0.66 -0.25,-1.03 0.21,-4.37 2.26,-7.77 -0.45,-12 -2.84,-4.42 -12.53,-7.7 -17.58,-7.47 -5.32,0.25 -6.13,5.54 -7.99,9.3 -1.09,2.21 -1.58,2.42 -4.21,2.1 C 54.05,11.3 53.86,10.88 53.43,10.12 50.89,5.65 50.87,-0.18 44.01,0.02 38.65,0.18 28.8,3.55 26.72,8.97 c -1.53,4.01 0.39,7.32 0.17,11.34 -1.51,1.34 -2.94,2.77 -4.34,4.21 -0.75,0.76 -0.99,1.87 -2.28,1.69 -3.58,-0.49 -5.99,-3.5 -10.38,-1.95 -3.74,1.32 -8.54,9.57 -9.44,13.34 -1.93,8.03 2.95,7.81 7.37,12.24 4.2,4.21 3.45,10.2 4.19,15.74 0.15,1.14 0.36,2.25 0.61,3.32 l 11.04,0.45 c 1.05,0.04 1.99,0.65 2.47,1.58 l 4.09,7.97 10.29,0.22 4.18,-7.92 c 0.51,-0.96 1.49,-1.55 2.58,-1.55 h 18.08 c 1.08,0 2.07,0.59 2.58,1.55 l 4.18,7.92 10.29,-0.22 4.09,-7.97 c 0.48,-0.93 1.43,-1.54 2.47,-1.58 l 10.68,-0.44 c 0.82,-4.27 0.89,-8.71 1.65,-13.05 1.36,-7.72 10.13,-9.07 10.91,-13.7 0.8,-4.78 -4.5,-14.72 -8.51,-17.22 z"
         id="path3-5"
         inkscape:label="head_top"
         style="fill:#488cbf" />
    </g>
    <g
       id="Mouth"
       style="display:inline">
      <g
         id="Mouth_Masked"
         data-name="Mouth Masked">
        <g
           class="cls-6"
           clip-path="url(#clippath)"
           id="g4">
          <path
             class="cls-3"
             d="M 101.07,70.5 89.03,71 c -0.46,0.02 -0.88,0.29 -1.09,0.7 l -4.18,8.14 c -0.22,0.42 -0.65,0.69 -1.12,0.7 l -10.7,0.23 C 71.45,80.78 71,80.51 70.77,80.08 l -4.28,-8.1 C 66.27,71.56 65.83,71.29 65.35,71.29 H 47.27 c -0.48,0 -0.92,0.26 -1.14,0.69 l -4.28,8.1 c -0.23,0.43 -0.68,0.7 -1.17,0.69 l -10.7,-0.23 c -0.47,-0.01 -0.9,-0.28 -1.12,-0.7 L 24.68,71.7 C 24.47,71.29 24.05,71.02 23.59,71 L 11.55,70.5"
             id="path4-2"
             style="display:inline;fill:none;stroke:#ffffff;stroke-width:3.25px;stroke-miterlimit:10"
             inkscape:label="mouth" />
        </g>
      </g>
    </g>
    <g
       id="Nose">
      <rect
         class="cls-1"
         x="53.759998"
         y="52.290001"
         width="4.6300001"
         height="9.54"
         rx="2.24"
         ry="2.24"
         id="rect4"
         inkscape:label="nose"
         style="fill:#ffffff" />
    </g>
    <g
       id="Eyes">
      <ellipse
         class="cls-1"
         cx="32.490002"
         cy="49.529999"
         rx="13.26"
         ry="12.01"
         transform="rotate(-64.72,32.4929,49.530513)"
         id="ellipse4"
         style="display:inline;fill:#ffffff"
         inkscape:label="eyball_L" />
      <ellipse
         class="cls-5"
         cx="33.959999"
         cy="50.169998"
         rx="8.6400003"
         ry="7.8200002"
         transform="rotate(-60,33.954724,50.168693)"
         id="ellipse5"
         style="display:inline;fill:#424143"
         inkscape:label="pupil_L" />
      <ellipse
         class="cls-1"
         cx="79.730003"
         cy="49.529999"
         rx="12.01"
         ry="13.26"
         transform="rotate(-25.28,79.746884,49.543636)"
         id="ellipse6"
         style="display:inline;fill:#ffffff"
         inkscape:label="eyeball_R" />
      <ellipse
         class="cls-5"
         cx="78.269997"
         cy="50.169998"
         rx="7.8200002"
         ry="8.6400003"
         transform="rotate(-30,78.275926,50.173972)"
         id="ellipse7"
         style="display:inline;fill:#424143"
         inkscape:label="pupil_R" />
    </g>
  </g>
</svg>
